<svg id="Layer_1" data-name="Layer 1" xmlns="http://www.w3.org/2000/svg" viewBox="0 0 150 21.1"><defs><style>.cls-1{fill:#0068b0;}.cls-2{fill:#dbdcdd;}.cls-3{fill:#789ca7;}</style></defs><title>dynetics-logo</title><g id="blue"><path class="cls-1" d="M23.7,4.55H36.1c5.5,0,8.4,2.1,8.4,8.1,0,5.7-2.9,8.1-8.2,8.1H23.7Zm6.4,12.1h3.7c2.9,0,4.1-1.4,4.1-4s-1.2-4-4.1-4H30.1Z" transform="translate(-4.2 -3.95)"/><path class="cls-1" d="M46.1,21.25c.5,0,.7.1,1.4.1,1.2,0,1.7,0,2.1-1l.3-.7L44.2,8.25h5.9l2.7,6.4,2.7-6.4h5.9l-6.9,14.4c-.9,1.8-1.6,2.4-4.6,2.4-1.3,0-2.8-.1-3.8-.2v-3.6Z" transform="translate(-4.2 -3.95)"/><path class="cls-1" d="M61.8,8.35h5.4v1.5h0A6.61,6.61,0,0,1,72.3,8c3.1,0,5.5,1.4,5.5,4.8v7.9H72.2v-6.4a1.92,1.92,0,0,0-2.2-2.2c-1.5,0-2.6.9-2.6,2.9v5.7H61.7l.1-12.3Z" transform="translate(-4.2 -3.95)"/><path class="cls-1" d="M97.5,17a5.29,5.29,0,0,1-2.8,3.1,13.65,13.65,0,0,1-6,1.1c-6,0-9.3-2.2-9.3-6.7,0-4.3,3.3-6.7,8.8-6.7s9.5,1.8,9.4,8H85.1c0,.9.9,2.2,3.4,2.2,1.5,0,2.3-.3,2.9-1.1l6.1.1Zm-5.6-4c-.1-1.3-1.4-2.2-3.3-2.2s-3.1.6-3.4,2.2Z" transform="translate(-4.2 -3.95)"/><path class="cls-1" d="M98,8.35h2.6v-4h5.7v4h3.1v3.5h-3.1v4.4c0,1.2.5,1.2,1.7,1.2h1.5v3.3a36.79,36.79,0,0,1-4.1.3c-3.4,0-4.8-.7-4.8-4V12H98V8.35Z" transform="translate(-4.2 -3.95)"/><path class="cls-1" d="M110.7,4h5.7v3.1h-5.7Zm0,4.4h5.7v12.4h-5.7Z" transform="translate(-4.2 -3.95)"/><path class="cls-1" d="M130.3,13.25a1.88,1.88,0,0,0-1.1-1.6,4.21,4.21,0,0,0-2-.4c-2.5,0-3.4,1.4-3.4,3.1,0,1.9,1.1,3.1,3.4,3.1,1.6,0,2.8-.5,3.1-2.1h5.9c-.6,5.1-5.2,5.7-9.1,5.7-5.2,0-9.3-1.6-9.3-6.7s4.1-6.7,9.3-6.7,8.5,1.4,9.1,5.5l-5.9.1Z" transform="translate(-4.2 -3.95)"/><path class="cls-1" d="M141.4,15.75c-3.3-.3-4.2-1.7-4.2-3.8,0-2.9,2.7-4.2,8.2-4.2,3.8,0,8.1.7,8.2,4.2h-6.4a.91.91,0,0,0-.4-.8,3.17,3.17,0,0,0-1.7-.3c-1.7,0-2,.4-2,.9,0,.3.3.7,1.5.8l5.4.5c3.1.3,4.2,1.6,4.2,3.7,0,3.2-2.8,4.4-8.7,4.4s-8.4-1.2-8.6-4.3h6.7a1.26,1.26,0,0,0,.7,1,3.9,3.9,0,0,0,1.6.2c1.4,0,1.9-.4,1.9-.9s-.2-.7-.8-.8Z" transform="translate(-4.2 -3.95)"/><polygon class="cls-2" points="16.3 0.5 0 16.7 3.5 16.7 16.3 4 16.3 0.5"/><polygon class="cls-3" points="16.3 5.1 4.6 16.7 8 16.7 16.3 8.4 16.3 5.1"/><polygon class="cls-1" points="16.3 9.6 9.1 16.7 16.3 16.7 16.3 9.6"/></g></svg>