<svg id="Layer_1" data-name="Layer 1" xmlns="http://www.w3.org/2000/svg" viewBox="0 0 384.3 177.77"><defs><style>.cls-1{fill:#fff;}.cls-2{fill:#003764;}.cls-3{fill:#a6a8ab;}.cls-4{fill:#0097d6;}</style></defs><title>Phocus Logo Clear Cut and Naturally Energizing</title><path class="cls-1" d="M394.8,98.64l-.17-.11L380.89,91.4c-4.93-2.33-8.15-4.08-8.15-6.87a6.48,6.48,0,0,1,6.61-6.79,9.43,9.43,0,0,1,3.9.77l.1,0,.11,0a19.54,19.54,0,0,1,5.37,3.31L389,82l.15.09a7.49,7.49,0,0,0,4,1.2,7.06,7.06,0,0,0,3-.65,8,8,0,0,0,2.41-1.79,8.27,8.27,0,0,0,1.62-2.19,6.23,6.23,0,0,0,.54-1.7,7.64,7.64,0,0,0,.12-1.36,7.54,7.54,0,0,0-1.06-3.81l-.08-.14-.09-.12a25.45,25.45,0,0,0-20-9.94c-13.27,0-23.27,9.93-23.27,23.1,0,7.26,3.41,13.22,9.87,17.23l.08,0,13.77,7.24c5.39,2.62,8.93,4.56,8.93,7.62a9.29,9.29,0,0,1-2.34,6.16l-.06.06-.05.07a7,7,0,0,1-1.13,1.08l-.63.49a11.33,11.33,0,0,1-2.74,1.37,10,10,0,0,1-3.45.63c-.27,0-.53,0-.79,0h-.13a9.32,9.32,0,0,1-5-1.64l-.08-.06-.08,0a22.19,22.19,0,0,1-4.83-4l-.22-.23-.27-.18a7.77,7.77,0,0,0-4.26-1.29,7.88,7.88,0,0,0-7.87,7.86,7.66,7.66,0,0,0,1.4,4.4,26.3,26.3,0,0,0,21.78,11.32c14.69,0,27.11-11.72,27.11-25.61C405.4,109.21,401.93,103.13,394.8,98.64Z" transform="translate(-21.09 -24.43)"/><path class="cls-1" d="M332.53,77.05v32.2c0,5.13,0,10.42-2.23,13.28-2,2.6-6.79,4.15-10.27,4.15s-8.29-1.56-10.31-4.18c-2.2-2.83-2.2-8.12-2.2-13.25V62.19l-3.16.56a16,16,0,0,0-13.23,15.79v32c0,7.33,0,14.91,5.92,22.21l.14.18a31.27,31.27,0,0,0,45.71,0l.12-.15a24.51,24.51,0,0,0,3.54-5.81c2.36-5.46,2.37-10.88,2.37-16.12V62.19l-3.15.55A16.09,16.09,0,0,0,332.53,77.05Z" transform="translate(-21.09 -24.43)"/><path class="cls-1" d="M77.19,67.86A20,20,0,0,0,74.54,66c-5.23-3.19-10.9-3.46-15.81-3.46H29.16A8.07,8.07,0,0,0,29,78.63v63.6l3.16-.56a16,16,0,0,0,13.23-15.79V112.79H58.73c5.29,0,13-.59,18.87-5.69,4.59-3.83,7.8-11.79,7.8-19.36a29.88,29.88,0,0,0-2-10.77A22.59,22.59,0,0,0,77.19,67.86ZM66.64,94.55c-1.74,1.57-3.76,2.12-7.74,2.12H45.39v-18h12.8c3.64,0,6.37.1,8.19,1.49C67.93,81.26,69,85,69,87.56,69,89.89,68.26,93.07,66.64,94.55Z" transform="translate(-21.09 -24.43)"/><path class="cls-1" d="M261.94,77.74a21.8,21.8,0,0,1,6,.92c.31.08.61.18,1,.29h0a23.37,23.37,0,0,1,2.6,1A22.59,22.59,0,0,1,274,81.27,8.24,8.24,0,0,0,285.93,71a6.46,6.46,0,0,0-1.44-2,9.82,9.82,0,0,0-1.67-1.26c-.87-.54-2-1.23-3.27-1.87a37.47,37.47,0,0,0-4-1.75,38.33,38.33,0,0,0-13.33-2.43,41.07,41.07,0,0,0-32.95,16.53l-.17-.21h0c-.41-.54-.84-1.07-1.28-1.58-.14-.17-.28-.33-.43-.49-.31-.37-.64-.74-1-1.09l-.2-.22.09-.13-1.69-1.58c-.25-.23-.53-.46-.79-.69l-.68-.69,0,0a43.17,43.17,0,0,0-5.65-4c-.46-.28-.92-.54-1.41-.82s-.92-.5-1.38-.73c-.8-.41-1.66-.8-2.62-1.2l-.13-.06-.57-.23c-1.09-.43-2.18-.81-3.2-1.12l-.27-.07c-1.14-.34-2.31-.63-3.47-.86l-.13,0c-1.1-.22-2.24-.39-3.5-.53l-.56,0c-1.31-.11-2.4-.17-3.43-.17h-.09c-22.2,0-40.94,18.59-40.94,40.6s18.74,40.6,40.94,40.6a41,41,0,0,0,32.58-16.59l.08.1c.5.67,1,1.33,1.57,2a.39.39,0,0,0,.08.1,40.1,40.1,0,0,0,3,3.21l.39.37c.46.43.93.85,1.41,1.25l.74.6.71.56c1.13.86,2.3,1.67,3.5,2.41h0a41.11,41.11,0,0,0,7.87,3.74l2.81,1v-.19a41.06,41.06,0,0,0,10.72,1.43,38.47,38.47,0,0,0,13.34-2.43,40.75,40.75,0,0,0,5-2.26l.27-.16c.95-.54,1.86-1.11,2.72-1.7a6.69,6.69,0,0,0,2.4-2.78,8.32,8.32,0,0,0-7.63-11.68,9.58,9.58,0,0,0-4.84,1.6l-.6.34c-.37.21-.75.4-1.13.59a23.25,23.25,0,0,1-2.33,1c-.81.28-1.63.53-2.45.74a20.31,20.31,0,0,1-2.37.44c-.81.11-1.65.15-2.42.18h-.22c-9.4,0-18.4-6.05-22.4-15.06l-.26-.56a24.35,24.35,0,0,1-1.87-8.81v0h0C237.66,88.94,248.89,77.74,261.94,77.74Zm-65.26,48.94a24.47,24.47,0,1,1,0-48.94,22.56,22.56,0,0,1,2.43.14l.52.06c.74.09,1.45.21,2,.34l.3.06c.68.16,1.4.36,2.22.64l.65.23c.51.19,1,.4,1.57.64l.28.12c.11,0,.23.09.36.16.54.26,1.11.56,1.75.94l.94.58c.33.21.65.44,1,.66.46.33.92.68,1.35,1s.66.54,1,.82.59.56.87.84.54.56.81.85a25.1,25.1,0,0,1,4.42,6.68l.29.64a23.54,23.54,0,0,1,1.82,9A24.85,24.85,0,0,1,196.68,126.68Z" transform="translate(-21.09 -24.43)"/><path class="cls-1" d="M134.94,78.19V91.06H106.2V62.18l-3.17.57A16.08,16.08,0,0,0,89.8,78.19v63.52h2.93l.23,0a16,16,0,0,0,13.23-15.76V107.19h28.74v35l3.16-.56a16,16,0,0,0,13.23-15.76V62.18l-3.16.57A16.08,16.08,0,0,0,134.94,78.19Z" transform="translate(-21.09 -24.43)"/><path class="cls-2" d="M248.78,125.76a28.13,28.13,0,0,1-14.06-23.51A37.79,37.79,0,0,0,223.37,75.5L216.71,84a27,27,0,0,1,7.21,18.2,38.08,38.08,0,0,0,24.86,35.48Z" transform="translate(-21.09 -24.43)"/><path class="cls-1" d="M245.62,84.3l-.78-.72-7.21-6.71-1.49-1.38-1.66,1.31c-8.65,6.82-13.31,16.22-12.76,25.8a17.94,17.94,0,0,1-4.05,12.09,26.34,26.34,0,0,1-1.52,2.22v.17c0,4.62,1,7.59,3,9.08a5.29,5.29,0,0,0,3.5,1h0a7.33,7.33,0,0,0,2.3-.55l.36-.15.27-.24c7.78-6.77,11.93-15.74,11.4-24.55a18.51,18.51,0,0,1,4.31-12.2A25.63,25.63,0,0,1,245.62,84.3Z" transform="translate(-21.09 -24.43)"/><path class="cls-2" d="M359,84.71c0,6.29,3,11.46,8.6,14.94l13.61,7.16c5.13,2.49,10.44,5.08,10.44,10a12,12,0,0,1-3,8,8.92,8.92,0,0,1-1.55,1.5c-.24.2-.51.39-.78.6a13.45,13.45,0,0,1-3.36,1.7,12.62,12.62,0,0,1-5.4.75,12.14,12.14,0,0,1-6.38-2.11,24.94,24.94,0,0,1-5.42-4.48,5.1,5.1,0,0,0-2.79-.85,5.19,5.19,0,0,0-5.18,5.17,5,5,0,0,0,.91,2.86,23.64,23.64,0,0,0,19.58,10.16c13.23,0,24.41-10.48,24.41-22.91,0-7.1-3-12.27-9.33-16.28l-.07,0-13.56-7c-4.76-2.27-9.7-4.6-9.7-9.31a9.2,9.2,0,0,1,9.31-9.48,12,12,0,0,1,5,1,21.71,21.71,0,0,1,6.22,3.78,4.82,4.82,0,0,0,2.6.79,4.45,4.45,0,0,0,1.86-.4,5.55,5.55,0,0,0,1.6-1.2,6.09,6.09,0,0,0,1.14-1.49,4,4,0,0,0,.32-1,5.47,5.47,0,0,0,.08-.9,4.86,4.86,0,0,0-.7-2.46,22.64,22.64,0,0,0-17.84-8.85C367.88,64.31,359,73.08,359,84.71Z" transform="translate(-21.09 -24.43)"/><path class="cls-2" d="M340.83,131.13l.09-.11a22.27,22.27,0,0,0,3.16-5.19c2.14-5,2.14-10.09,2.15-15V65.39a13.45,13.45,0,0,0-11,11.92v31.94c0,5.58,0,11.35-2.78,14.92-2.63,3.42-8.23,5.2-12.41,5.2s-9.79-1.79-12.43-5.22-2.77-9.32-2.77-14.9V65.4a13.38,13.38,0,0,0-11,13.14v32c0,7.18,0,14,5.31,20.51l.08.1a28.6,28.6,0,0,0,41.63,0Z" transform="translate(-21.09 -24.43)"/><path class="cls-2" d="M42.69,125.88V110.1h16c4.86,0,11.92-.52,17.15-5.08,4-3.29,6.83-10.57,6.83-17.28a27.35,27.35,0,0,0-1.85-9.8,20,20,0,0,0-5.4-8,19.35,19.35,0,0,0-2.31-1.66c-4.65-2.83-9.88-3.07-14.42-3.07H29.16a5.38,5.38,0,0,0,0,10.75h2.53V139A13.36,13.36,0,0,0,42.69,125.88Zm0-26.52V75.94h15.5c4.18,0,7.33.14,9.79,2,2.71,2,3.72,7,3.72,9.61s-.85,6.8-3.26,9c-2.6,2.34-5.57,2.81-9.54,2.81Z" transform="translate(-21.09 -24.43)"/><path class="cls-2" d="M282.63,70.87A7.3,7.3,0,0,0,281.4,70c-1-.62-2-1.22-3.06-1.75a34.1,34.1,0,0,0-3.74-1.64,35.72,35.72,0,0,0-12.4-2.25,38.2,38.2,0,0,0-38.28,37.9,27.24,27.24,0,1,1-27.24-27.16,26.18,26.18,0,0,1,2.66.14l.62.08c.79.1,1.57.23,2.35.4l.27,0c.82.19,1.63.43,2.44.7.25.08.49.16.74.26.58.22,1.17.45,1.73.71l.72.31c.68.32,1.33.68,2,1,.35.21.68.42,1,.64s.72.48,1.08.72,1,.75,1.48,1.14.73.61,1.08.92.65.61,1,.92.59.62.88.94a27.57,27.57,0,0,1,4.9,7.39,41.19,41.19,0,0,1,5.36-11.86,39.22,39.22,0,0,0-4.22-4.7l0-.06a39.72,39.72,0,0,0-6.72-5c-.42-.26-.85-.5-1.29-.75s-.87-.48-1.32-.7c-.79-.41-1.61-.77-2.44-1.12l-.66-.27c-1-.39-2-.74-3-1.06l-.21,0q-1.6-.48-3.24-.81l-.12,0c-1.08-.21-2.16-.37-3.26-.49l-.52,0a32.59,32.59,0,0,0-3.28-.16c-20.74,0-38.25,17.35-38.25,37.9s17.51,37.9,38.25,37.9,38-17.35,38-38c.27-14.7,12.74-27.11,27.22-27.11a24.35,24.35,0,0,1,6.76,1l1.1.33s0,0,0,0a27.29,27.29,0,0,1,2.88,1.13A28.11,28.11,0,0,1,275.41,79,5.56,5.56,0,0,0,283.47,72,3.71,3.71,0,0,0,282.63,70.87Z" transform="translate(-21.09 -24.43)"/><path class="cls-2" d="M279.47,135.63c.86-.5,1.71-1,2.54-1.59a4.1,4.1,0,0,0,1.45-1.64,5.63,5.63,0,0,0-5.16-7.91c-1.56,0-2.83.89-4.14,1.61l-1.24.65a24.25,24.25,0,0,1-2.63,1.09,27.17,27.17,0,0,1-2.7.82,21.85,21.85,0,0,1-2.68.51c-.88.11-1.76.15-2.66.19h-.31c-10.84,0-20.55-7-24.87-16.65a41.36,41.36,0,0,1-5.49,12.09,38.32,38.32,0,0,0,30.62,15.3,36,36,0,0,0,12.41-2.25,36.7,36.7,0,0,0,4.65-2.11Z" transform="translate(-21.09 -24.43)"/><path class="cls-2" d="M137.63,78.19V93.76H103.51V65.4a13.43,13.43,0,0,0-11,12.79V139h0a13.37,13.37,0,0,0,11-13.11V104.5h34.12V139a13.37,13.37,0,0,0,11-13.11V65.4A13.42,13.42,0,0,0,137.63,78.19Z" transform="translate(-21.09 -24.43)"/><path class="cls-1" d="M33.83,52.17a10.58,10.58,0,1,1,6.46-19,3.25,3.25,0,0,1,1.17,3.64,3.19,3.19,0,0,1-3,2.15,3.33,3.33,0,0,1-2.1-.76,4,4,0,0,0-2.52-.83,4.21,4.21,0,1,0,0,8.41,3.91,3.91,0,0,0,2.5-.86,3.27,3.27,0,0,1,2.08-.76A3.19,3.19,0,0,1,40.29,50,10.34,10.34,0,0,1,33.83,52.17Z" transform="translate(-21.09 -24.43)"/><path class="cls-3" d="M25.35,41.62a8.47,8.47,0,0,1,8.48-8.45A8.29,8.29,0,0,1,39,34.88a1,1,0,1,1-1.26,1.66,6.23,6.23,0,0,0-3.86-1.31,6.36,6.36,0,1,0,0,12.72,6,6,0,0,0,3.86-1.34A1,1,0,1,1,39,48.27,8.26,8.26,0,0,1,33.83,50,8.47,8.47,0,0,1,25.35,41.62Z" transform="translate(-21.09 -24.43)"/><path class="cls-1" d="M45.12,52c-2.28,0-3.93-1.84-3.93-4.38V29.75a3.18,3.18,0,0,1,2.41-5.32c2.28,0,3.93,1.84,3.93,4.38V46.7a3.15,3.15,0,0,1,.82,2.14A3.2,3.2,0,0,1,45.12,52Z" transform="translate(-21.09 -24.43)"/><path class="cls-3" d="M43.34,47.63V28.94a.42.42,0,0,0-.22-.41,1,1,0,0,1-.61-.93,1,1,0,0,1,1.09-1c1.17,0,1.78,1,1.78,2.22V47.5a.44.44,0,0,0,.22.42,1,1,0,0,1,.6.92,1,1,0,0,1-1.08,1C43.94,49.86,43.34,48.84,43.34,47.63Z" transform="translate(-21.09 -24.43)"/><path class="cls-1" d="M57,52.17c-5.55,0-9.91-4.66-9.91-10.61S51.51,31,57,31s10,4.73,10,10.55a3.19,3.19,0,0,1-2.19,3,3.1,3.1,0,0,1,1,2.31,3.19,3.19,0,0,1-.89,2.23A10.44,10.44,0,0,1,57,52.17Zm-2.35-7.41A3.26,3.26,0,0,0,57,45.83a4.58,4.58,0,0,0,3.32-1.07Zm4.74-6.34A3.34,3.34,0,0,0,57,37.36a3.44,3.44,0,0,0-2.38,1.06Z" transform="translate(-21.09 -24.43)"/><path class="cls-3" d="M51.29,42.61C51.7,45.41,54,48,57,48a6.61,6.61,0,0,0,4.86-1.71,1.09,1.09,0,0,1,.8-.32,1,1,0,0,1,1,.95,1,1,0,0,1-.29.73A8.32,8.32,0,0,1,57,50c-4.58,0-7.76-4-7.76-8.46,0-4.33,3.18-8.39,7.76-8.39s7.82,4,7.82,8.39a1.09,1.09,0,0,1-1.08,1Zm11.44-2A6.08,6.08,0,0,0,57,35.2a6,6,0,0,0-5.69,5.37Z" transform="translate(-21.09 -24.43)"/><path class="cls-1" d="M80.22,52.17a3.63,3.63,0,0,1-2.62-1.11,9.17,9.17,0,0,1-4.25,1.11c-4.76,0-8.23-3.12-8.23-7.43a7.59,7.59,0,0,1,4-6.87,3.11,3.11,0,0,1-2.25-3,3.22,3.22,0,0,1,2.08-3A14.76,14.76,0,0,1,74,31c4.18,0,7.09,1.6,8.21,4.5a9.17,9.17,0,0,1,.46,3.31V46.7a3.16,3.16,0,0,1,.83,2.14A3.33,3.33,0,0,1,80.22,52.17Zm-5.78-9.25c-.9,0-3,.17-3,1.78,0,1.13,1.75,1.16,2,1.16,1.17,0,2.86-.7,2.86-2v-.73A6.19,6.19,0,0,0,74.44,42.92Z" transform="translate(-21.09 -24.43)"/><path class="cls-3" d="M78.5,48.36a4.75,4.75,0,0,1-.06-1A6.13,6.13,0,0,1,73.35,50c-3.15,0-6.07-1.85-6.07-5.28,0-4.13,3.37-6,7.25-6a7.83,7.83,0,0,1,3.91,1.05v-.89A8.44,8.44,0,0,0,78.25,37c-.51-1.4-2.32-1.81-4.17-1.81a12.5,12.5,0,0,0-3.65.57,2.34,2.34,0,0,1-.45.07,1,1,0,0,1-1-1,1,1,0,0,1,.7-1A12.4,12.4,0,0,1,74,33.17c2.65,0,5.28.73,6.21,3.12a7.33,7.33,0,0,1,.31,2.53V47.5a.44.44,0,0,0,.22.42,1,1,0,0,1,.61.92A1.19,1.19,0,0,1,80.22,50,1.92,1.92,0,0,1,78.5,48.36Zm-.06-6.61a7.51,7.51,0,0,0-4-1c-2.58,0-5.13,1.14-5.13,3.94C69.31,47,71.38,48,73.42,48c2.35,0,5-1.52,5-4.13Z" transform="translate(-21.09 -24.43)"/><path class="cls-1" d="M85.4,52a3.21,3.21,0,0,1-3.24-3.17A3.18,3.18,0,0,1,83,46.7V36.48a3.14,3.14,0,0,1-.83-2.14,3.22,3.22,0,0,1,3.24-3.17,3.7,3.7,0,0,1,2.16.68A7,7,0,0,1,90.9,31a10.63,10.63,0,0,1,3.63.64,3.21,3.21,0,0,1,2.12,3.05,3.14,3.14,0,0,1-3.19,3.16,3.39,3.39,0,0,1-1-.17,5.08,5.08,0,0,0-1.51-.27s-1.57,0-1.57.8v9.41C89.33,50.17,87.68,52,85.4,52Z" transform="translate(-21.09 -24.43)"/><path class="cls-3" d="M87,34.47a2.66,2.66,0,0,1,.09.67,4.57,4.57,0,0,1,3.85-2,8.39,8.39,0,0,1,2.89.51,1,1,0,0,1,.7,1,1,1,0,0,1-1.4.95,7,7,0,0,0-2.19-.38c-1.81,0-3.73.95-3.73,2.95v9.41c0,1.21-.6,2.23-1.77,2.23a1,1,0,0,1-1.08-1,1,1,0,0,1,.61-.92.44.44,0,0,0,.22-.42V35.68a.42.42,0,0,0-.22-.41,1,1,0,0,1-.61-.93,1,1,0,0,1,1.08-1A1.65,1.65,0,0,1,87,34.47Z" transform="translate(-21.09 -24.43)"/><path class="cls-1" d="M111,52.17A10.58,10.58,0,1,1,111,31a10.5,10.5,0,0,1,6.45,2.18,3.25,3.25,0,0,1,1.17,3.64,3.19,3.19,0,0,1-3,2.15,3.42,3.42,0,0,1-2.1-.75,4,4,0,0,0-2.51-.84,4.21,4.21,0,1,0,0,8.41,4,4,0,0,0,2.5-.86,3.25,3.25,0,0,1,2.08-.76A3.19,3.19,0,0,1,117.47,50,10.34,10.34,0,0,1,111,52.17Z" transform="translate(-21.09 -24.43)"/><path class="cls-3" d="M102.52,41.62A8.48,8.48,0,0,1,111,33.17a8.29,8.29,0,0,1,5.12,1.71,1.05,1.05,0,1,1-1.27,1.66A6.21,6.21,0,0,0,111,35.23,6.36,6.36,0,1,0,111,48a6,6,0,0,0,3.85-1.34,1,1,0,1,1,1.27,1.66A8.26,8.26,0,0,1,111,50,8.48,8.48,0,0,1,102.52,41.62Z" transform="translate(-21.09 -24.43)"/><path class="cls-1" d="M134,52a3.75,3.75,0,0,1-2.65-1,9,9,0,0,1-3.92,1c-6,0-9.37-3.43-9.37-9.4V36.48a3.11,3.11,0,0,1-.83-2.14,3.21,3.21,0,0,1,3.23-3.17c2.28,0,3.94,1.84,3.94,4.38v7.06c0,2.4.66,3.06,3.09,3.06,1.25,0,2.58-.59,2.58-2.23V35.55c0-2.54,1.66-4.38,3.93-4.38a3.21,3.21,0,0,1,3.24,3.17,3.13,3.13,0,0,1-.83,2.14V46.7a3.16,3.16,0,0,1,.83,2.14A3.21,3.21,0,0,1,134,52Z" transform="translate(-21.09 -24.43)"/><path class="cls-3" d="M132.22,47.31c-.92,1.69-3.37,2.55-4.8,2.55-4.74,0-7.22-2.52-7.22-7.25V35.68a.42.42,0,0,0-.23-.41,1,1,0,0,1,.48-1.94c1.18,0,1.79,1,1.79,2.22v7.06c0,3.59,1.65,5.21,5.24,5.21,2.7,0,4.74-1.75,4.74-4.38V35.55c0-1.21.6-2.22,1.77-2.22a1,1,0,0,1,1.09,1,1,1,0,0,1-.61.93.42.42,0,0,0-.22.41V47.5a.44.44,0,0,0,.22.42,1,1,0,0,1,.61.92,1.05,1.05,0,0,1-1.09,1C132.6,49.86,132.12,48.52,132.22,47.31Z" transform="translate(-21.09 -24.43)"/><path class="cls-1" d="M144.1,52c-2.55,0-6.82-1-6.82-8.13V37.29a3.14,3.14,0,0,1-2-2.95,3.18,3.18,0,0,1,1.77-2.87,3.18,3.18,0,0,1,2.62-5.07c2.27,0,3.93,1.84,3.93,4.38v.39h1.47a3.11,3.11,0,0,1,3,3.17A3.17,3.17,0,0,1,145,37.51h-1.34v6.37a3.73,3.73,0,0,0,.24,1.78h0a2.11,2.11,0,0,0,.24,0,4.89,4.89,0,0,0,1.21-.23l.08,0a3.42,3.42,0,0,1,.83-.1,3.18,3.18,0,0,1,1,6.22A10.2,10.2,0,0,1,144.1,52Z" transform="translate(-21.09 -24.43)"/><path class="cls-3" d="M141.47,30.78v2.55h3.62a1,1,0,0,1,.89,1,1,1,0,0,1-1,1h-3.49v8.52c0,2,.32,3.94,2.63,3.94a7,7,0,0,0,1.82-.32,1,1,0,0,1,1.3.71,1,1,0,0,1-.7,1.27,8.13,8.13,0,0,1-2.42.38c-3.37,0-4.67-2.26-4.67-6V35.36h-1a1,1,0,0,1-1-1,1,1,0,0,1,.89-1h1.08V30.91a.44.44,0,0,0-.22-.42,1,1,0,0,1-.6-.91,1,1,0,0,1,1.08-1C140.86,28.56,141.47,29.58,141.47,30.78Z" transform="translate(-21.09 -24.43)"/><path class="cls-1" d="M92,55a3.22,3.22,0,0,1-1.47-.35,3.33,3.33,0,0,1-1.4-4.46L99.32,27.86a3.25,3.25,0,0,1,3-2,3.26,3.26,0,0,1,3.1,4.27l0,.11L95,53A3.28,3.28,0,0,1,92,55Z" transform="translate(-21.09 -24.43)"/><path class="cls-3" d="M91.1,51.06l10.18-22.31a1.11,1.11,0,0,1,1-.69,1.08,1.08,0,0,1,1.05,1.43L93,52.14a1.14,1.14,0,0,1-1.53.54A1.2,1.2,0,0,1,91.1,51.06Z" transform="translate(-21.09 -24.43)"/><polygon class="cls-4" points="275.7 166.39 275.86 166.45 276.1 165.61 275.89 165.63 275.7 166.39"/><polygon class="cls-4" points="353.02 164.53 353.19 164.6 353.43 163.76 353.21 163.78 353.02 164.53"/><polygon class="cls-4" points="72.64 126.61 72.45 126.61 72.26 127.24 72.45 127.23 72.64 126.61"/><path class="cls-4" d="M96.35,158c0-.19.05-.4.07-.62a.93.93,0,0,1,.17-.53c.12-.44.28-.93.47-1.48l.47-1.34a12.36,12.36,0,0,1,.53-1.19c.21-.45.42-.88.61-1.3s.37-.76.53-1.05a2.13,2.13,0,0,0,.23-.53.51.51,0,0,0-.12-.36l-.26-.23-.28-.25a.54.54,0,0,0-.45-.63,1.71,1.71,0,0,0-.26-.21,1.48,1.48,0,0,0-.19-.71,2.88,2.88,0,0,1-.19.24.32.32,0,0,1-.19.1c-.16-.25-.31-.36-.43-.33a.65.65,0,0,1-.47-.08l-.19,0a.3.3,0,0,1,.19.1c0,.1-.07.19-.2.29a2.75,2.75,0,0,0-.85,0,2.24,2.24,0,0,1-.81,0,.72.72,0,0,1,.29.66.7.7,0,0,1-.15.52.35.35,0,0,1-.14-.32.78.78,0,0,0-.21.4.16.16,0,0,1,.07-.07.15.15,0,0,1,.19,0c-.22.58-.44,1.14-.64,1.68s-.39,1.08-.55,1.62a2.38,2.38,0,0,0-.64,1.32,6.35,6.35,0,0,1-.54,1.6,1,1,0,0,1-.19.88,3.51,3.51,0,0,0-.57,1.13L89,168.46a16.06,16.06,0,0,0-.57,2.08c-.16.75-.34,1.5-.52,2.26a2.76,2.76,0,0,1-.05-.9,3.19,3.19,0,0,1,.19-.81,3.06,3.06,0,0,0-.19.75,1,1,0,0,1-.38.64c-.1-.12-.19-.24-.29-.35a1.36,1.36,0,0,1-.19-.26c-.41-1.38-.84-2.89-1.28-4.53s-.84-3.1-1.18-4.39q-.44-1.51-1-3.09c-.34-1.05-.66-2.09-.95-3.09a.78.78,0,0,1-.09-.41V156a3.37,3.37,0,0,0-.38-1A1.34,1.34,0,0,1,82,154c.06-.36.12-.7.17-1a7.21,7.21,0,0,0,.07-1.07,1,1,0,0,1,0-.43,1.22,1.22,0,0,0,0-.47,3.29,3.29,0,0,0-.43-.61,1.77,1.77,0,0,0-.57-.46,1.51,1.51,0,0,0-.54-.08,3.9,3.9,0,0,1-.5,0,2.64,2.64,0,0,0-.36-.23.82.82,0,0,0-.4-.09,1.2,1.2,0,0,0-.72.44l-.42-.08c-.26.19-.52.41-.81.65a3,3,0,0,0-.76,1.32,1.85,1.85,0,0,1,0,.52,1.45,1.45,0,0,0,0,.43,1.67,1.67,0,0,1,0,.5,2.66,2.66,0,0,1-.07.45c-.22.76-.46,1.6-.71,2.51s-.48,1.67-.67,2.31c-.34,1.34-.7,2.65-1.06,3.94s-.69,2.57-1,3.84v.71c-.54,1.63-1,3.27-1.52,4.95s-.93,3.32-1.37,4.94a4.82,4.82,0,0,0-.17,1.09,6.22,6.22,0,0,1-.12,1,6.77,6.77,0,0,0-.28.91,3.72,3.72,0,0,0-.15.81,5.28,5.28,0,0,0,.12.64c.08.33.14.59.17.78s0,.16-.1.28c.26.41.5.79.74,1.15a7.33,7.33,0,0,1,.55,1c.09-.07.13-.1.11-.1h.12a.48.48,0,0,1,.41.18.48.48,0,0,0,.35.18,2,2,0,0,0,.48-.06,2.5,2.5,0,0,1,.47-.05.28.28,0,0,0,.29-.18,1.05,1.05,0,0,1,.19-.36c.1.16.22.16.38,0-.19-.06-.28-.28-.26-.66a7,7,0,0,0,0-.86,4.76,4.76,0,0,1,.33-2.16,22,22,0,0,0,.75-2.65,1.07,1.07,0,0,1,.12-.24,1.91,1.91,0,0,0,.17-.24,3.71,3.71,0,0,1,.17-.88,8.56,8.56,0,0,0,.21-.84l.14-.12a.32.32,0,0,0,.1-.12c.19-.61.38-1.24.57-1.91s.39-1.31.61-1.91a1,1,0,0,0,.27-.29,1.65,1.65,0,0,0,.16-.34c.38-1.24.75-2.59,1.12-4.06s.68-2.86,1-4.19l.14-.05a.85.85,0,0,1,.22.18,1.3,1.3,0,0,1,.11.19c.29,1.07.59,2.13.91,3.19l.9,3c.19.66.43,1.39.73,2.17s.58,1.52.83,2.22a.36.36,0,0,0,0,.42c.07,0,.13.09.2.24s.06.22,0,.28c.09.26.2.62.33,1.09a2.17,2.17,0,0,0,.47,1,.3.3,0,0,1-.09.19,16.23,16.23,0,0,1,.78,2.16c.24.82.45,1.49.64,2a3.58,3.58,0,0,0,.36.75,2.42,2.42,0,0,0,.54.65c.32.28.64.59,1,.93a4.07,4.07,0,0,0,1.11.84l.38.2a.67.67,0,0,0,.33.12l1.19,0a1.09,1.09,0,0,0,.55-.2,6.31,6.31,0,0,0,.54-.39c.1-1.58.21-2.95.34-4.09s.28-2.36.47-3.66c-.12-.13-.19-.21-.19-.24a3.4,3.4,0,0,0,.26-.86c.05-.28.09-.57.12-.86-.06,0-.09,0-.09,0s0,0,0,0,.1-.14.12-.1.07,0,.16-.1c.1-.57.22-1.22.38-1.93s.27-1.35.34-1.88a.74.74,0,0,1-.15-.24c.1-.35.19-.73.29-1.14a5.31,5.31,0,0,0,.14-.81,5,5,0,0,1,.21-1,9.06,9.06,0,0,1,.45-1.25,12.19,12.19,0,0,1,.48-2.66l.21-.37a.4.4,0,0,0,.08-.21,6.36,6.36,0,0,1,.49-2.24C95.89,159.31,96.16,158.59,96.35,158ZM70.47,178.75l-.19-.09.19-.29.1.09Zm0-.71a1.19,1.19,0,0,1,.1-.41c.06-.17.12-.36.19-.55a2.43,2.43,0,0,0,0,.36c0,.14,0,.26,0,.35Zm.57-1.58h-.19l.14-.52h.15Zm1.28-4.78a7.13,7.13,0,0,1-.23,1c.06-.29.12-.6.19-1a7.78,7.78,0,0,1,.23-1C72.45,171,72.39,171.34,72.32,171.68Zm.64-1.93-.3.74c.06-.29.13-.57.21-.86a3.12,3.12,0,0,0,.12-.85c0,.06,0,.09.07.09s.07.08.07.23A1.83,1.83,0,0,1,73,169.75Z" transform="translate(-21.09 -24.43)"/><polygon class="cls-4" points="73.07 125.75 72.92 125.7 72.73 125.99 72.92 126.04 73.07 125.75"/><path class="cls-4" d="M162,168.74a5.49,5.49,0,0,0,.1.57,3.31,3.31,0,0,1,1.13-.09,5.38,5.38,0,0,0,.86.05.49.49,0,0,1,.21-.62,1.75,1.75,0,0,0,.5-.62,2.15,2.15,0,0,1-.28-.57,1.87,1.87,0,0,0-.24-.47,5.22,5.22,0,0,0-2.16-1.52,6.2,6.2,0,0,0-2.4-.53,3.37,3.37,0,0,0-1.31.36,7,7,0,0,0-1.37.86,15.54,15.54,0,0,0-1.19,1,3.34,3.34,0,0,0-.74,1,3.44,3.44,0,0,1,.1-.9,2.17,2.17,0,0,0,.05-.76,9,9,0,0,0-.17-1,8.2,8.2,0,0,0-.31-1,2,2,0,0,0-.76-.88,1.63,1.63,0,0,0-.95-.41h-.57a7.84,7.84,0,0,0-.26,1.44c0,.5-.1,1-.16,1.42q-.1,1.05-.24,2.07c-.1.68-.18,1.3-.24,1.83a23.88,23.88,0,0,1-.33,2.71c-.16.9-.35,1.79-.57,2.68a9.93,9.93,0,0,1-.19,1.16,2.56,2.56,0,0,0-.05.27l-.28-.24c-.45.27-.91.56-1.38.86a5.21,5.21,0,0,1-1.42.67c-.42.13-1,.3-1.69.48a8.3,8.3,0,0,1-1.3.29.56.56,0,0,1-.34-.09.39.39,0,0,1-.33-.42q0-.28.12-1.23c.08-.64.17-1.21.26-1.72,0-.06.05-.12.14-.19l.05-.1c.13-.6.28-1.21.48-1.84a16.4,16.4,0,0,1,.61-1.69,9.67,9.67,0,0,1,.57-1.22,3.29,3.29,0,0,0,.38-.85,3,3,0,0,0-.21-.87,4,4,0,0,0-.45-.91,2,2,0,0,1-1-.53c-.2-.24-.34-.35-.4-.35s-.16,0-.09.08,0,.07-.1.07-.26,0-.31-.14a.66.66,0,0,0-.21-.23.56.56,0,0,0,.05.23c0,.1,0,.15-.1.15a1.46,1.46,0,0,0-.4-.28,1,1,0,0,1-.36-.23,12.55,12.55,0,0,0-.76,1.2c-.25.45-.46.84-.62,1.15a27.75,27.75,0,0,1-3.58,5.37c-1.41,1.66-2.9,3.41-4.49,5.24h-.09v-.33c.12-.36.23-.7.31-1a3,3,0,0,1,.4-.94.78.78,0,0,1-.1-.32v-.24c.26-.61.52-1.17.79-1.7s.5-1,.69-1.51.4-.92.64-1.42.45-.94.64-1.36q.52-1.24,1.23-2.64a5.24,5.24,0,0,0,.71-2.29,1,1,0,0,0-.07-.4.92.92,0,0,1-.07-.31,5.1,5.1,0,0,0-.45-.58,1.26,1.26,0,0,1-.31-.59.62.62,0,0,1-.5,0,.79.79,0,0,0-.45-.11,2,2,0,0,0-1.4.54,5.19,5.19,0,0,0-.92,1.24,12.83,12.83,0,0,0-.6,1.23l-3.94.42c-1.22.14-2.37.31-3.44.52a3.58,3.58,0,0,0-.64.18,1.88,1.88,0,0,1-.55.13c-.19,0-.26,0-.23-.11s0-.12-.19-.12a2.75,2.75,0,0,0-1,.16c-.22,0-.4,0-.52,0a.57.57,0,0,1-.43-.11v-.23c.19-.7.37-1.42.55-2.15s.3-1.42.4-2.05c.47-1.5,1-3,1.45-4.61s1-3.17,1.45-4.8a2.69,2.69,0,0,0-.15-.8,5.68,5.68,0,0,0,.41-1.15,4.58,4.58,0,0,0,.16-.86,1.92,1.92,0,0,0-.11-.47,4.9,4.9,0,0,0-.31-.66,6.89,6.89,0,0,1-.34-.66,1.56,1.56,0,0,1-.14-.47v-.24l.14,0a.58.58,0,0,0-.21,0,1.47,1.47,0,0,1-.31,0c-.16,0-.33-.12-.5-.37a.69.69,0,0,0-.54-.37,1.76,1.76,0,0,0-.38.1,1.08,1.08,0,0,0-.43.25,2.15,2.15,0,0,0-.9,1.47,14.23,14.23,0,0,1-.43,1.69c-.22.6-.42,1.22-.59,1.84s-.33,1.18-.46,1.69c-.28,1.09-.59,2.16-.92,3.23s-.62,2.12-.88,3.17c-.12.51-.26,1.14-.4,1.9s-.28,1.54-.41,2.32-.26,1.51-.4,2.19a13.24,13.24,0,0,1-.4,1.55,1,1,0,0,1-.26.48.66.66,0,0,1-.41.25c-.19,0-.26,0-.21-.07s0-.07-.21-.07a.57.57,0,0,0-.31.08,2.06,2.06,0,0,1-.26.12c0,.06-.08.18-.24.34a5.7,5.7,0,0,1-.12,1.12,5.09,5.09,0,0,0-.12.78.81.81,0,0,0,.19.42l.43.64.47.68a1.17,1.17,0,0,1,.24.42,20.74,20.74,0,0,1-.12,3.07c0,.32-.06.6-.07.85-.12.07-.43.21-1,.47s-1.26.61-2,.94l-2,.9a4.76,4.76,0,0,1-1.24.4,2.52,2.52,0,0,0-.66.11,1.23,1.23,0,0,1-.76,0,7,7,0,0,0-.07-.81,5.24,5.24,0,0,1-.08-.66c0-.06,0-.38.08-1s.12-1.23.21-2,.21-1.56.36-2.42.27-1.59.4-2.19c.1-.45.21-1,.36-1.55s.3-1.15.47-1.67.31-1,.41-1.37a4.65,4.65,0,0,0,.14-.71c0-.19,0-.25-.07-.16s-.07.06-.07,0,.09-.26,0-.52a5.3,5.3,0,0,0-.21-.57,3,3,0,0,0-1-.62,2.88,2.88,0,0,0-1.12-.28c-.12,0-.15,0-.09.07s0,.07-.19.07-.23-.06-.21-.18-.06-.19-.22-.19c-.31,0-.46.09-.42.25s-.1.4-.38.72a1.58,1.58,0,0,1-.38,0,1.69,1.69,0,0,0-.38,0,1.4,1.4,0,0,1-.81-.41h-.38a1.53,1.53,0,0,1-.57.68.68.68,0,0,1-.43.15,1.55,1.55,0,0,0-.56.16.16.16,0,0,0,0,.21.19.19,0,0,1,0,.21c-.22.2-.45.42-.69.68a2.25,2.25,0,0,1-.69.54,9.38,9.38,0,0,0-1.07.92,8.75,8.75,0,0,0-.83.92c-.41.55-.92,1.32-1.54,2.33s-1.22,2.08-1.8,3.22a29,29,0,0,0-1.5,3.37,8.43,8.43,0,0,0-.62,2.72,2.4,2.4,0,0,0,.17.66,4.79,4.79,0,0,1,.21.76,15.24,15.24,0,0,1,1.24,1.14,2.29,2.29,0,0,0,1.75.56,2,2,0,0,0,.5-.11,2.08,2.08,0,0,1,.5-.11,2,2,0,0,0,1.21-.59A12.72,12.72,0,0,0,102.4,182c.43-.5.81-1,1.14-1.47l.69-1c.28-.48.56-.91.83-1.3a13.4,13.4,0,0,0,.78-1.25,12.16,12.16,0,0,1,.12,1.33c0,.44,0,.81,0,1.09a4.42,4.42,0,0,0,.3.8,10.28,10.28,0,0,0,.81,1.46,7,7,0,0,0,1.19,1.36,2.11,2.11,0,0,0,1.4.59l2-.05a1.16,1.16,0,0,0,.5-.22l.81-.51.9-.59a2.12,2.12,0,0,1,.83-.35.44.44,0,0,1-.24-.14c-.09-.09-.14-.15-.14-.18.35-.26.69-.54,1-.83a7.32,7.32,0,0,0,.79-.78c-.13-.21-.07-.44.19-.66a.92.92,0,0,1,.42-.44,1,1,0,0,0,.37-.38,3.18,3.18,0,0,0,.06.89q.14.9.24,1.8a3.09,3.09,0,0,0,1.18,1.88,1,1,0,0,1,.24.44c.06.21.17.31.33.31a2.45,2.45,0,0,0,.43-.06l.33-.06a.82.82,0,0,1,.29-.59.74.74,0,0,0,.28-.51,2.24,2.24,0,0,0-.09-.42c-.07-.22-.13-.47-.19-.73a4.86,4.86,0,0,1-.14-.73,2.92,2.92,0,0,1,0-.48,5.73,5.73,0,0,1,.09-.69c.06-.36.14-.8.22-1.29s.17-1,.28-1.55.21-1,.31-1.38l.67-.46a1.76,1.76,0,0,1,.7-.33c.07-.12.14-.24.22-.35a1,1,0,0,1,.17-.22c.38-.17.81-.34,1.3-.53a6.13,6.13,0,0,1,.88-.28c.19,0,.28,0,.28,0s0,0,.1,0a.28.28,0,0,0-.05-.16c0-.05,0-.09.05-.12l1.71-.63a11.7,11.7,0,0,1,1.56-.48c0-.29.07-.43.2-.43s.1.11,0,.16,0,.08.1.07.35-.15.59-.44a5.62,5.62,0,0,0,.5-.67,11.72,11.72,0,0,0,1.45-.41,1.49,1.49,0,0,0,1-.87l-.26-.16a.24.24,0,0,1-.12-.22,6.47,6.47,0,0,1,.79-.39l.09,0a.05.05,0,0,0,0,0c0,.09,0,.16,0,.19s0,.09,0,.19a.47.47,0,0,1-.23.19.3.3,0,0,0-.19.19,2.78,2.78,0,0,0-.12.7.86.86,0,0,1-.22.55,2.1,2.1,0,0,0-.35.34,2.05,2.05,0,0,0-.36.57.91.91,0,0,0,0,.43,1.46,1.46,0,0,1,.08.43,4.74,4.74,0,0,1-.29.85,2.55,2.55,0,0,1-.52.77c-.19,1.09-.4,2-.62,2.84a11.08,11.08,0,0,0-.33,2.88,5.49,5.49,0,0,0,.09.83,5.14,5.14,0,0,0,.24.88,1.47,1.47,0,0,0,.31.61,6.67,6.67,0,0,0,.45.51,3.66,3.66,0,0,0,.71.55,1.3,1.3,0,0,1,.53.57,4.2,4.2,0,0,1,.78.05,5,5,0,0,0,.73.06c-.09-.07-.14-.11-.14-.15l.1,0a3.74,3.74,0,0,0,.57-.32c.15-.12.28-.2.38-.27a21,21,0,0,1,2.42-3.63c.92-1.11,1.8-2.2,2.66-3.26a1.74,1.74,0,0,1,.19.76c0,.16,0,.38,0,.66a1.13,1.13,0,0,0,.09.67c.22.5.46,1,.69,1.64s.5,1.18.79,1.75a2.4,2.4,0,0,0,.45.51,3.73,3.73,0,0,0,.45.37c.5.18,1.06.35,1.66.51a6,6,0,0,0,1.76.23,3.19,3.19,0,0,0,1-.4,6.36,6.36,0,0,0,1.09-.73,2.07,2.07,0,0,0,.52-.42,3.26,3.26,0,0,0,.29-.36.52.52,0,0,0,.16-.31.49.49,0,0,1,.12-.26c.06.06.06.11,0,.16s0,.07.19.07a.36.36,0,0,0,.31-.12.5.5,0,0,0,.07-.27.5.5,0,0,1-.26.17.26.26,0,0,1-.26-.11,4.83,4.83,0,0,0,.71-.77c-.1-.07-.1-.17,0-.34.19-.33.36-.61.54-.88,0,.15-.08.29-.11.42a3.82,3.82,0,0,0-.15.6,2.47,2.47,0,0,0,.29,1.13,9,9,0,0,1,.52,1.33c.25-.07.38,0,.38.2a.62.62,0,0,0,.14.45l.76.31a1.73,1.73,0,0,0,.57.18,1.57,1.57,0,0,0,.91-.3,3.31,3.31,0,0,1,0-2.11,14,14,0,0,1,.8-2.09,1.54,1.54,0,0,0,.17-.61,1,1,0,0,1,.21-.58c.16-.15.31-.31.45-.46a1.75,1.75,0,0,0,.36-.55s0-.07,0-.12a.29.29,0,0,1-.07-.21,12.39,12.39,0,0,0,1.14-1.78s-.05-.07-.14-.12-.11-.11,0-.21,0-.09.14-.09h.05a.27.27,0,0,0,.19,0,.21.21,0,0,1,.15-.05.27.27,0,0,0-.1-.21.13.13,0,0,1,0-.17l.15-.19a.18.18,0,0,1,.14-.05q-.15-.14.09-.57c.13,0,.19.08.19.24.6-.93,1.29-1.89,2.07-2.87a6.19,6.19,0,0,1,2.58-2C161.88,168.26,161.93,168.52,162,168.74Zm-28.42-1.69a.37.37,0,0,1,0,.11s0,0,0,0A.46.46,0,0,0,133.54,167.05ZM106,171.35a3.07,3.07,0,0,1-.43.94c-.29.49-.62,1-1,1.54s-.71,1-1,1.47-.46.69-.49.71c-.41.48-.91,1-1.5,1.7s-.4-.33-1,.26c.35-.73,0,0,.44-1a27.63,27.63,0,0,1,1.31-2.71,3,3,0,0,1,.6-.82,3.88,3.88,0,0,0,.68-1,8.32,8.32,0,0,1,.67-1.17,6.29,6.29,0,0,1,.89-1.11.87.87,0,0,0-.11.41c.12-.15.23-.32.35-.48a.49.49,0,0,1-.07.24.24.24,0,0,0,.07.29l.29-.29c-.13.21-.25.45-.38.67v.16a.45.45,0,0,1,.37.2.37.37,0,0,0,.12-.23c0-.07,0-.1.13-.11Zm44.21,6.43c0,.12-.05.23-.07.35a1.35,1.35,0,0,1-.19-.27,3,3,0,0,0-.24-.38,6.26,6.26,0,0,1,.68-.63C150.33,177.16,150.26,177.47,150.21,177.78Z" transform="translate(-21.09 -24.43)"/><path class="cls-4" d="M258.37,162.89a3.3,3.3,0,0,0,.88-.38,3.12,3.12,0,0,1,.92-.37.22.22,0,0,0-.12-.21.16.16,0,0,1-.07-.21.76.76,0,0,1,.24-.34.4.4,0,0,0,.14-.34,1,1,0,0,0-.07-.37.69.69,0,0,0-.26-.33l.24-.19-3.18.77c-.1,0-.13,0-.1,0s0,0-.19,0a14.13,14.13,0,0,0-1.43.31l-2.77.67-2.78.67c-.85.21-1.33.32-1.42.32h-.15l-.14-.1-.33.35a.28.28,0,0,1-.09-.17s-.08-.07-.24-.06a1.4,1.4,0,0,0-.66.25l-.2-.19a20.2,20.2,0,0,0,.88-2.37c.24-.78.5-1.57.78-2.36s.39-1.35.57-2a15.08,15.08,0,0,1,.72-2,.86.86,0,0,1,.26-.31,2.48,2.48,0,0,1,.4-.22,3.72,3.72,0,0,0,.83-.11,3.38,3.38,0,0,1,.69-.11c.06,0,.1,0,.1,0v-.09c.57-.11,1.08-.22,1.54-.34a3.69,3.69,0,0,1,1.49-.06l.24-.24c.64-.11,1.21-.19,1.73-.27a8.1,8.1,0,0,0,1.4-.31,5.19,5.19,0,0,1,1.07-.12,3.5,3.5,0,0,0,1.07-.16.79.79,0,0,0,.36-.15.69.69,0,0,1,.4-.15l6.27-.12a1.1,1.1,0,0,0,.5-.23c.2-.15.4-.28.59-.41a.8.8,0,0,1-.24-.64c0-.21-.08-.4-.33-.59a4.18,4.18,0,0,0-1.21-.61l-1.07-.34c-.32-.09-.67-.18-1.07-.26L263.4,148c-.38-.09-.71-.16-1-.2l-.47-.06h-3.09l-2.49,0c-.87,0-1.64.05-2.3.09a5.25,5.25,0,0,0-.88.12c-.33.07-.65.12-.95.16l-.81.11-.45.06h-.17s0,0-.11,0l-.64-.46a1.14,1.14,0,0,1-.41-.52l-.26-.19a.44.44,0,0,0-.31-.08,6,6,0,0,0-.78,0,.43.43,0,0,0-.33.21,3,3,0,0,0-.26.58,5.74,5.74,0,0,1-.62,1.05c-.73.18-1.43.36-2.09.57l-1.9.56a.24.24,0,0,0-.12.14c0,.07-.1.1-.26.1s-.16,0-.09-.07,0-.07-.1-.06a.31.31,0,0,0-.24.14l0,0v.33q.14.52.3,1c.11.33.22.63.31.92a1.52,1.52,0,0,0,.41.68.81.81,0,0,1,.31.49,2.54,2.54,0,0,1,.66.37c.25.18.38.35.38.51a1.8,1.8,0,0,1-.26.72,6,6,0,0,0-.36.77l-1.23,3.72c-.41,1.24-.82,2.44-1.24,3.59a.48.48,0,0,1-.31.31.42.42,0,0,1-.3,0,2.11,2.11,0,0,1,.21,1,5.7,5.7,0,0,1-.24,1.33c-.14.52-.31,1.11-.5,1.79s-.36,1.49-.52,2.41c0,0-.06.13-.19.29v3.18a4.3,4.3,0,0,0,.05.48c0,.22.08.49.14.8s.12.63.17,1a3.55,3.55,0,0,0,.21.8,6.68,6.68,0,0,0,1.07,1.88,8.73,8.73,0,0,0,2.06,1.81,5.66,5.66,0,0,0,1.24.76,2.94,2.94,0,0,0,1.23.28.4.4,0,0,1,.17.09s.1.05.26.05l1.81,0,.47-.15c.28-.1.6-.24,1-.4s.7-.34,1.07-.52a4.62,4.62,0,0,0,.88-.56,1.15,1.15,0,0,0,.38-.39,1.69,1.69,0,0,1,.19-.33,3.43,3.43,0,0,1,.57-.73,4.16,4.16,0,0,1,.76-.73.78.78,0,0,1-.27,0c-.08,0-.12,0-.12-.11a1.72,1.72,0,0,0,.43-.65,1.45,1.45,0,0,1,.29-.5c-.29-.22-.39-.4-.31-.57a.63.63,0,0,0,0-.52c-.09,0-.14,0-.14-.11s-.06-.12-.19-.12a1.51,1.51,0,0,0-1,.52,5.63,5.63,0,0,1-1,.8c-.51.26-1,.5-1.4.69s-.83.37-1.21.51c-.19.06-.43.15-.71.27a2.47,2.47,0,0,1-.57.18,1.34,1.34,0,0,0-.48.08,1.93,1.93,0,0,1-.47.08.39.39,0,0,1-.33-.19.48.48,0,0,0-.38-.18q-.24,0-.24.12c0,.08-.08.12-.24.13a.85.85,0,0,1-.33,0,1.54,1.54,0,0,0-.28-.09c-.36-.44-.52-.75-.5-.94a2.73,2.73,0,0,0,0-.57.2.2,0,0,0,0-.15s0-.12,0-.28,0-.31,0-.64.08-.74.15-1.21.14-1,.24-1.46.17-.91.23-1.26.09-.54.17-1,.16-.83.23-1.24a7.58,7.58,0,0,1,.29-1.08q.16-.45.36-.45c.15,0,.19,0,.11,0s0,0,.12,0,.46,0,1-.09a6.52,6.52,0,0,0,1.38-.29l1.33-.57a3.28,3.28,0,0,1,1.23-.33l7-2.94-.26,0a.23.23,0,0,1-.22-.06,2.64,2.64,0,0,1,1.14-.35c-.22,0-.27-.06-.14-.17A.76.76,0,0,0,258.37,162.89Z" transform="translate(-21.09 -24.43)"/><path class="cls-4" d="M277.6,175.56c-.08,0-.11,0-.1.08l.14-.08Z" transform="translate(-21.09 -24.43)"/><path class="cls-4" d="M297.06,175.85a1.84,1.84,0,0,0,.17-.62.92.92,0,0,1,.21-.57l.45-.47a1.75,1.75,0,0,0,.36-.55s0-.07,0-.12a.29.29,0,0,1-.07-.21,13.33,13.33,0,0,0,1.14-1.78s0-.07-.14-.11-.11-.12,0-.21,0-.1.15-.1h0c.1,0,.16,0,.19-.06a.26.26,0,0,1,.15-.05.27.27,0,0,0-.1-.21.12.12,0,0,1,0-.16l.15-.2a.17.17,0,0,1,.14-.05q-.15-.13.09-.57c.13,0,.19.08.19.24.6-.93,1.29-1.89,2.07-2.87a6.15,6.15,0,0,1,2.58-2c.07.32.11.59.15.8s.06.42.09.57a3.38,3.38,0,0,1,1.14-.09,5.32,5.32,0,0,0,.86.05c-.1-.21,0-.42.21-.62a1.62,1.62,0,0,0,.5-.63,2,2,0,0,1-.29-.56,1.72,1.72,0,0,0-.23-.47,5.31,5.31,0,0,0-2.16-1.52,6.23,6.23,0,0,0-2.4-.53,3.37,3.37,0,0,0-1.31.36,7.07,7.07,0,0,0-1.38.86c-.42.34-.82.69-1.18,1a3.18,3.18,0,0,0-.74,1,4.63,4.63,0,0,1,.09-.9,2,2,0,0,0,.06-.76,9.38,9.38,0,0,0-.17-1,8.2,8.2,0,0,0-.31-1,2.2,2.2,0,0,0-.76-.89,1.7,1.7,0,0,0-.95-.4h-.57a7.73,7.73,0,0,0-.26,1.43c0,.51-.1,1-.16,1.42q-.1,1.05-.24,2.07t-.24,1.83a26.94,26.94,0,0,1-.33,2.72q-.24,1.34-.57,2.67c0,.34-.1.74-.19,1.16s-.18.86-.26,1.29a11.59,11.59,0,0,1-.27,1.15,4.27,4.27,0,0,0-.14.59,2.54,2.54,0,0,0,.29,1.14,8.71,8.71,0,0,1,.52,1.31c.25-.06.38,0,.38.21a.62.62,0,0,0,.14.45l.76.32a2,2,0,0,0,.57.18,1.6,1.6,0,0,0,.9-.31,3.45,3.45,0,0,1,0-2.11A12.5,12.5,0,0,1,297.06,175.85Z" transform="translate(-21.09 -24.43)"/><path class="cls-4" d="M327.41,154.1a13.37,13.37,0,0,0,.52,1.34,2,2,0,0,0,.86,1,.28.28,0,0,1,.09.17.41.41,0,0,0,.05.16l.88.41a1.9,1.9,0,0,0,1,.17c.57,0,.92-.16,1-.37a1.21,1.21,0,0,0,.15-.77c0-.29-.08-.62-.15-1a1.27,1.27,0,0,1,.19-1,.86.86,0,0,1-.35-.8.7.7,0,0,0-.12-.62,1.17,1.17,0,0,0-.38-.44,2.19,2.19,0,0,1-.52-.53,2.29,2.29,0,0,0-.76.18,5.86,5.86,0,0,1-.67.22,5,5,0,0,1-.85.16,8.36,8.36,0,0,1-1.29,0,1.41,1.41,0,0,1,.17.82A1.62,1.62,0,0,0,327.41,154.1Z" transform="translate(-21.09 -24.43)"/><path class="cls-4" d="M333.56,172.7c0-.3,0-.58,0-.85a.71.71,0,0,1,.24-.59,27.56,27.56,0,0,1-2.77,2.42,18.89,18.89,0,0,1-3.26,2,2.69,2.69,0,0,1,0-1.54c.16-.46.38-1.19.67-2.18.06-.22.13-.51.19-.85a3.6,3.6,0,0,1,.24-.86,7.4,7.4,0,0,0,.71-2.51,18.36,18.36,0,0,1,.48-2.55,1.53,1.53,0,0,1,.14-.5,1,1,0,0,0,.09-.4,2.56,2.56,0,0,0-1.12-1.69,2.79,2.79,0,0,0-1.92-.72,2.39,2.39,0,0,0-.54.15,1.74,1.74,0,0,1-.55.11,1.28,1.28,0,0,0-.33.5.8.8,0,0,1-.24.36c0,.32-.05.54-.05.67a24.68,24.68,0,0,0-1.56,5c0,.13-.1.38-.2.74s-.2.78-.33,1.24a9.64,9.64,0,0,0-.28,1.72,6.85,6.85,0,0,0,.33,3.26,6.84,6.84,0,0,0,1,1.95,6.36,6.36,0,0,0,1.52,1.5,3.1,3.1,0,0,0,2.11.48,4.33,4.33,0,0,0,.86-.21,4.84,4.84,0,0,0,1-.45c.2-.1.29-.22.29-.36v-.31a12.3,12.3,0,0,1,1.16-1.21,8.6,8.6,0,0,1,1.31-1,1.18,1.18,0,0,1,.14-.81,1.94,1.94,0,0,0,.33-.29.83.83,0,0,0,.24-.39.28.28,0,0,0-.24-.13.47.47,0,0,1-.24-.05,1.54,1.54,0,0,0,.51-.77A3.17,3.17,0,0,0,333.56,172.7Z" transform="translate(-21.09 -24.43)"/><path class="cls-4" d="M354.7,153.38a12.5,12.5,0,0,0,.52,1.34,2.09,2.09,0,0,0,.86,1,.24.24,0,0,1,.09.16.45.45,0,0,0,.05.17l.88.41a2,2,0,0,0,1,.17c.57,0,.92-.17,1-.38a1.13,1.13,0,0,0,.14-.77c0-.29-.07-.61-.14-1a1.27,1.27,0,0,1,.19-1,.85.85,0,0,1-.35-.8.65.65,0,0,0-.12-.61,1,1,0,0,0-.38-.45,2.38,2.38,0,0,1-.52-.53,2.93,2.93,0,0,0-.76.18,5.18,5.18,0,0,1-.67.23,6.14,6.14,0,0,1-.85.16,10.23,10.23,0,0,1-1.29,0,1.42,1.42,0,0,1,.17.83A1.73,1.73,0,0,0,354.7,153.38Z" transform="translate(-21.09 -24.43)"/><path class="cls-4" d="M358.29,173a17.73,17.73,0,0,1-3.26,2,2.69,2.69,0,0,1,0-1.54c.16-.46.39-1.19.67-2.17.06-.22.12-.51.19-.86a4.19,4.19,0,0,1,.23-.86,7.08,7.08,0,0,0,.72-2.51,20.34,20.34,0,0,1,.47-2.55,1.94,1.94,0,0,1,.15-.5,1,1,0,0,0,.09-.4,2.52,2.52,0,0,0-1.12-1.69,2.79,2.79,0,0,0-1.92-.72,3.44,3.44,0,0,0-.55.15,1.62,1.62,0,0,1-.54.11,1.28,1.28,0,0,0-.33.5.77.77,0,0,1-.24.37c0,.31-.05.53-.05.66a24.17,24.17,0,0,0-1.56,5c0,.12-.1.37-.19.73s-.21.78-.34,1.24a9.79,9.79,0,0,0-.28,1.72,7.81,7.81,0,0,0-.05,1.37c-.45-.08-.9-.17-1.34-.23a27.39,27.39,0,0,0-4.61-.17l-4.14.8a.64.64,0,0,0-.22.06c-.06,0-.12,0-.19-.08,1-.91,1.9-1.71,2.59-2.39s1.31-1.29,1.84-1.84,1-1.06,1.48-1.56,1-1,1.5-1.56a4.26,4.26,0,0,0,.36-.52,7.08,7.08,0,0,0,.41-.77c.12-.27.23-.53.32-.77a1.71,1.71,0,0,0,.13-.58,1.36,1.36,0,0,0-.22-.54,2.22,2.22,0,0,1-.27-.61,3.17,3.17,0,0,0-.82-.47,1.83,1.83,0,0,1-.77-.51l-.53-.08a2.21,2.21,0,0,0-.38,0,7.91,7.91,0,0,0-.8.17c-.44.11-.94.22-1.52.34s-1.17.27-1.79.43-1.15.31-1.57.46a13.41,13.41,0,0,0-1.91.71c-.72.33-1.3.62-1.72.86-.25.11-.39.25-.41.43a3.45,3.45,0,0,0-.05.57,1.48,1.48,0,0,0,.07.37,2.13,2.13,0,0,0,.23.52,2.76,2.76,0,0,0,.38.48.73.73,0,0,0,.59.23,2.51,2.51,0,0,0,.87-.23.64.64,0,0,0,.27-.2,1.1,1.1,0,0,1,.14-.15,2.71,2.71,0,0,0,.63-.29,1.12,1.12,0,0,1,.54-.21c.15,0,.2,0,.12.05s0,.06.11.05a.38.38,0,0,0,.32-.22.56.56,0,0,1,.27-.25c.73-.18,1.49-.39,2.27-.64a10,10,0,0,1,1.42-.37c0,.05,0,.07.08.07h.05a5.58,5.58,0,0,1-.89,1.1c-.38.38-.78.76-1.2,1.16l-1.27,1.16c-.43.37-.82.71-1.18,1-.67.61-1.33,1.19-2,1.75a19.75,19.75,0,0,0-1.86,1.79c-.18.15-.41.35-.66.58a10.31,10.31,0,0,0-.73.75,7,7,0,0,0-.59.79,1.46,1.46,0,0,0-.25.78.66.66,0,0,0,0,.32l.13.2a2.26,2.26,0,0,0,.93,1.76,3,3,0,0,0,1.94.56,7,7,0,0,0,.86-.14c.45-.1.81-.19,1.09-.27.51-.12,1-.26,1.45-.4s.85-.27,1.18-.39a.45.45,0,0,0,.32-.14,1.74,1.74,0,0,1,.27-.22c1.18-.27,2.39-.51,3.62-.7l3.69-.61a5.61,5.61,0,0,1,1.21-.06l.62,0a7,7,0,0,0,.89,1.74,6.32,6.32,0,0,0,1.52,1.49,3.1,3.1,0,0,0,2.11.48,3.24,3.24,0,0,0,.86-.21,5.17,5.17,0,0,0,1-.45.4.4,0,0,0,.28-.36v-.3a11.25,11.25,0,0,1,1.16-1.22,7.87,7.87,0,0,1,1.31-1,1.21,1.21,0,0,1,.14-.82,1.62,1.62,0,0,0,.33-.29.81.81,0,0,0,.24-.38.24.24,0,0,0-.24-.14.53.53,0,0,1-.23,0,1.77,1.77,0,0,0,.5-.77,3.28,3.28,0,0,0,.09-.89c0-.3,0-.58,0-.85a.72.72,0,0,1,.23-.6A26.39,26.39,0,0,1,358.29,173Z" transform="translate(-21.09 -24.43)"/><path class="cls-4" d="M381,173.47c-.08,0-.1,0-.09.07l.14-.08Z" transform="translate(-21.09 -24.43)"/><path class="cls-4" d="M374.71,178.05a8.45,8.45,0,0,0,.88.55,6,6,0,0,0,1,.43,2.12,2.12,0,0,0,.64.16c.15,0,.43,0,.83.05a4.81,4.81,0,0,0,1.07,0,5.47,5.47,0,0,1,.35-.58,1.33,1.33,0,0,1,.5-.49,2.69,2.69,0,0,1,.79-.6,1.65,1.65,0,0,0,.68-.61.79.79,0,0,1,.26-.46,3.52,3.52,0,0,0,.41-.36.47.47,0,0,1-.12-.38.75.75,0,0,0-.07-.38.55.55,0,0,0,.24-.43.5.5,0,0,1,.14-.38s.09,0,.19-.1l0,0a.6.6,0,0,1-.37-.09,1.21,1.21,0,0,1,.21-.24,1.29,1.29,0,0,0,.21-.19s0-.1-.05-.19a.18.18,0,0,1,0-.24,2.48,2.48,0,0,1,.34-1,6,6,0,0,0-1,.71,2.21,2.21,0,0,1-.74.46h-.19l.05-.1a0,0,0,0,1,0,0,4.62,4.62,0,0,0-.57.34c-.32.21-.63.41-.93.59s-.6.34-.9.49a2,2,0,0,1-.73.23.93.93,0,0,1-.62-.08q0-.72-.12-1.38a4.56,4.56,0,0,1,0-1.23,16.71,16.71,0,0,1,0-1.74c0-.68.06-1.32.08-1.92s0-1.14,0-1.61a3.1,3.1,0,0,0,0-.81c0-.32-.05-.52-.05-.62a1.82,1.82,0,0,0-.05-.35,1.56,1.56,0,0,0-.26-.52,12.49,12.49,0,0,1-.64-1.15.45.45,0,0,1-.16,0c-.08,0-.13-.08-.13-.14s.1-.12.1-.15v0c-.19-.15-.41-.35-.66-.58a1.11,1.11,0,0,0-.57-.34.75.75,0,0,0-.36.15,1.68,1.68,0,0,1-.31.19,2.5,2.5,0,0,0-.21-.35,1.72,1.72,0,0,0-.36-.35,1.78,1.78,0,0,1-.81.26,1.71,1.71,0,0,0-.71.15,2,2,0,0,0-.73.56l-.76.87a9.63,9.63,0,0,0-.72.92,4.44,4.44,0,0,1-.59.74,4.88,4.88,0,0,1,.29-2.09l.19-.29a.71.71,0,0,0,.09-.38c.09-.48.17-1,.24-1.55s.13-1,.19-1.45a2.32,2.32,0,0,1,.26-.6.68.68,0,0,0,.12-.5l-.05-.52-.16.07a.17.17,0,0,1-.12,0h-.05a.39.39,0,0,1-.07-.4,1.21,1.21,0,0,0,.07-.4,2,2,0,0,1-.66-.27,6.08,6.08,0,0,1-.53-.38,1.2,1.2,0,0,1,0,.43.61.61,0,0,1-.17.38c-.16-.22-.31-.4-.45-.56a5.85,5.85,0,0,1-.4-.47,1.91,1.91,0,0,0-.65.45c-.23.22-.46.43-.68.62a5.24,5.24,0,0,0,0,.57,3.91,3.91,0,0,1,0,.43q-.94,2.53-1.9,5.21c-.63,1.79-1.17,3.33-1.61,4.64a5,5,0,0,0-.17,1.14,5.15,5.15,0,0,1-.16,1.15,6.91,6.91,0,0,1-.27.74,4.61,4.61,0,0,1-.35.74A11.4,11.4,0,0,1,362,174a11,11,0,0,0-.19,1.12,1.49,1.49,0,0,0,.19.54,1.1,1.1,0,0,0,.29.31,1.62,1.62,0,0,1,.14.47,5.52,5.52,0,0,0,.26.85,2.83,2.83,0,0,0,.45.77.76.76,0,0,0,.72.3c.15,0,.19,0,.11-.08s0-.07.17-.07.25,0,.38.18a.54.54,0,0,0,.43.23,2.85,2.85,0,0,0,.78-.66c.39-.4.7-.75.93-1a10.3,10.3,0,0,0,.83-1.2l.69-1.26q-.06-.28,0-.33c.66-.8,1.35-1.7,2.08-2.7s1.41-1.86,2-2.6c.06,0,.07.07,0,.12s0,.09.05.12c0,.69.06,1.44.07,2.25a9.16,9.16,0,0,0,.21,1.92,9.54,9.54,0,0,0,.6,2.22c.3.75.63,1.47,1,2.16C374.31,177.73,374.46,177.86,374.71,178.05Zm.19-15.24.05.23-.34.06,0-.24Z" transform="translate(-21.09 -24.43)"/><path class="cls-4" d="M287,160a.13.13,0,0,0,.09.12.41.41,0,0,0,0-.22C287,159.94,287,160,287,160Z" transform="translate(-21.09 -24.43)"/><path class="cls-4" d="M322,163.23c0,.08-.07.07-.08,0s.09-.26,0-.48a1.44,1.44,0,0,0-1.43-1,3.74,3.74,0,0,0-1.27-.15c-.13,0-.17,0-.09.07s0,.07-.2.08-.27,0-.26-.14-.08-.17-.25-.15c-.36,0-.51.12-.46.27s-.07.36-.36.68a2.94,2.94,0,0,1-.42,0,1.55,1.55,0,0,0-.43,0,1.66,1.66,0,0,1-.93-.3l-.43,0a1.36,1.36,0,0,1-.58.66.86.86,0,0,1-.45.18,1.73,1.73,0,0,0-.62.19.14.14,0,0,0,0,.19.15.15,0,0,1,0,.2c-.23.2-.47.43-.71.68a2.47,2.47,0,0,1-.72.55,9.72,9.72,0,0,0-1.1.92,7.52,7.52,0,0,0-.85.91c-.41.53-.91,1.27-1.51,2.24s-1.17,2-1.72,3.06a24.48,24.48,0,0,0-1.37,3.17,6.26,6.26,0,0,0-.44,2.51,2,2,0,0,0,.23.57,3.06,3.06,0,0,1,.31.66,16.86,16.86,0,0,1,1.47.91,3,3,0,0,0,2,.33,2,2,0,0,0,.54-.13,2.32,2.32,0,0,1,.55-.14,2.6,2.6,0,0,0,1.3-.65,12,12,0,0,0,1.36-1.32c.43-.49.81-1,1.14-1.43s.55-.79.68-1c.27-.46.54-.88.81-1.25a2.1,2.1,0,0,0,.15-.22c0,.16,0,.33,0,.49a27.9,27.9,0,0,1-.23,2.89l-.25,1.19a6.3,6.3,0,0,1-.23.88,13.43,13.43,0,0,1-.39,3.1c-.28,1.18-.5,2.16-.67,2.95s-.29,1.53-.48,2.21a11,11,0,0,1-1.32,2.71.87.87,0,0,0-.14.49.69.69,0,0,1-.15.44,14.27,14.27,0,0,1-1.54,1.93A24.5,24.5,0,0,1,308,195.6a18.3,18.3,0,0,1-2.88,2,7.28,7.28,0,0,1-2.78,1,1,1,0,0,1-.92-.42,3.7,3.7,0,0,1-.51-1.12,4.66,4.66,0,0,1-.17-1.17v-.63a3.83,3.83,0,0,1-.48-.79,2.54,2.54,0,0,1-.25-.63,10.66,10.66,0,0,1,.07-1.2,8.09,8.09,0,0,0,0-1.62,1.48,1.48,0,0,1,.08-.59,1.18,1.18,0,0,0,.09-.46.33.33,0,0,0-.17-.29.56.56,0,0,0-.29-.05l-.4-3.5c.06-.17.05-.26,0-.25s-.13,0-.17-.12a.47.47,0,0,1-.08-.2c-.26.57-.54,1.17-.84,1.78a12.55,12.55,0,0,0-.71,1.87,6.88,6.88,0,0,0-.27,1.42A4.35,4.35,0,0,1,297,192a.73.73,0,0,1-.1-.46,2.25,2.25,0,0,0,0-.52c0,.29-.08.58-.13.87a3.62,3.62,0,0,1-.18.8.42.42,0,0,0,0,.16,2,2,0,0,1,.06.34c0,.18.05.43.08.77s.06.83.09,1.46a11,11,0,0,0,.77,2,10.41,10.41,0,0,0,1.34,2,8.48,8.48,0,0,0,1.95,1.66,6.54,6.54,0,0,0,2.6.9c.29.06.69.13,1.22.2a4.4,4.4,0,0,0,1.09.08,5.28,5.28,0,0,0,1.81-.6c.71-.37,1.42-.76,2.15-1.21s1.36-.89,1.92-1.33a4.43,4.43,0,0,0,1-1c-.09-.14-.05-.33.12-.55s.38-.47.6-.71l.65-.67a4.31,4.31,0,0,0,.46-.5c.33-.58.64-1.17.92-1.75s.56-1.17.87-1.75a15.05,15.05,0,0,0,1.08-3.08,1.23,1.23,0,0,0-.12-.61.78.78,0,0,1,0-.53,4.08,4.08,0,0,1,.22-.54c.08-.19.09-.33,0-.43a3.81,3.81,0,0,0,1-2.47,5.39,5.39,0,0,1,.49-2.34.48.48,0,0,0,.06-.44.41.41,0,0,1,0-.38,28.14,28.14,0,0,1,.51-4c.14-.73.26-1.46.36-2.18l.66-1c0-.48,0-1,.05-1.63s.1-1.43.18-2.21.18-1.45.26-2c.07-.4.15-.88.26-1.42s.24-1.06.38-1.55.26-.91.33-1.26a2.5,2.5,0,0,0,.09-.66C322.1,163.21,322.06,163.16,322,163.23Zm-5.54,4.24a3.26,3.26,0,0,1-.5,1.08c-.33.56-.71,1.15-1.14,1.75s-.82,1.17-1.16,1.69l-.57.82c-.48.55-1.05,1.19-1.73,1.93s-.47-.38-1.11.3a10.2,10.2,0,0,0,.51-1.16,33.36,33.36,0,0,1,1.52-3.1,3.43,3.43,0,0,1,.69-.94,4.08,4.08,0,0,0,.78-1.13,10.22,10.22,0,0,1,.78-1.34,7,7,0,0,1,1-1.26.82.82,0,0,0-.05.81l.19-.24,0,.56a.53.53,0,0,1,.42.24.41.41,0,0,0,.15-.27c0-.07,0-.12.14-.12Z" transform="translate(-21.09 -24.43)"/><path class="cls-4" d="M290.06,176.32l-1.83.6a1.06,1.06,0,0,0-.92,0,1.46,1.46,0,0,1-.74.21h-.69a1.23,1.23,0,0,1-.69-.13,4.74,4.74,0,0,1-.92-.53c-.33-.22-.5-.44-.5-.62a1.71,1.71,0,0,1,.42-.73c.29-.35.66-.76,1.1-1.23s.89-1,1.32-1.52.86-1,1.24-1.4.83-1.08,1.26-1.71a13.65,13.65,0,0,0,.92-1.51c.1-.32.2-.68.31-1.08s.21-.79.29-1.19l.21-1.05a3.55,3.55,0,0,0,.1-.54c0-.32-.06-.52-.17-.6l-.35-.21a.59.59,0,0,1-.31-.37,2.83,2.83,0,0,1-.12-1,2.21,2.21,0,0,1-.26-.28.38.38,0,0,0-.31-.14c-.16,0-.21,0-.15.08s0,.07-.19.07-.23-.09-.23-.28a2.38,2.38,0,0,0-.09-.62,2.8,2.8,0,0,1-.74-.31,1.48,1.48,0,0,0-.6-.23c-.18,0-.23,0-.14.08s.05.07-.14.07l-.1,0c0,.16-.18.29-.43.41l-.85.4a3.25,3.25,0,0,0-1,.82,5.72,5.72,0,0,1-.78.87,5.77,5.77,0,0,1-.62,1c-.25.32-.46.6-.62.82a18.54,18.54,0,0,0-.9,1.66c-.25.52-.48,1-.67,1.36-.34.74-.68,1.52-1,2.35a14.74,14.74,0,0,0-.62,1.91c-.09.38-.22.85-.36,1.41a5.28,5.28,0,0,0-.08,1.65,6.43,6.43,0,0,0-.77.55,2.12,2.12,0,0,1-.74.46h-.18l0-.1s0,0,0,0a6.39,6.39,0,0,0-.57.34c-.31.22-.62.41-.93.59a10,10,0,0,1-.9.49,1.76,1.76,0,0,1-.73.23,1,1,0,0,1-.62-.08c0-.48-.07-.93-.12-1.38a5,5,0,0,1,0-1.23,16.51,16.51,0,0,1,0-1.73c0-.69.06-1.33.08-1.93s0-1.14,0-1.61a3.1,3.1,0,0,0,0-.81c0-.32-.05-.52-.05-.62a1.27,1.27,0,0,0-.05-.35,1.46,1.46,0,0,0-.26-.52,12.49,12.49,0,0,1-.64-1.15l-.17,0a.16.16,0,0,1-.11-.14.31.31,0,0,0,.09-.15v0c-.19-.16-.41-.35-.66-.59s-.44-.35-.57-.34a.75.75,0,0,0-.36.15,2.41,2.41,0,0,1-.31.2,2.12,2.12,0,0,0-.21-.36,1.92,1.92,0,0,0-.35-.35,1.74,1.74,0,0,1-.81.26,1.84,1.84,0,0,0-.71.15,1.9,1.9,0,0,0-.74.57l-.76.86a8.13,8.13,0,0,0-.71.92,5.61,5.61,0,0,1-.6.74,5.06,5.06,0,0,1,.29-2.09l.19-.29a.69.69,0,0,0,.09-.38c.1-.48.18-1,.24-1.55s.13-1,.19-1.45a2.32,2.32,0,0,1,.26-.6.68.68,0,0,0,.12-.5l0-.52-.16.07a.17.17,0,0,1-.12,0h-.05a.41.41,0,0,1-.07-.4,1.21,1.21,0,0,0,.07-.4,2.18,2.18,0,0,1-.66-.27c-.19-.13-.37-.25-.53-.38a1.2,1.2,0,0,1,0,.43.59.59,0,0,1-.17.38c-.16-.21-.31-.4-.45-.56a5.72,5.72,0,0,1-.4-.46,1.71,1.71,0,0,0-.64.44c-.24.22-.47.44-.69.63,0,.18,0,.38,0,.57s0,.33,0,.43c-.64,1.68-1.27,3.42-1.91,5.2s-1.16,3.34-1.61,4.64a5.07,5.07,0,0,0-.16,1.15,5.68,5.68,0,0,1-.17,1.14,6.68,6.68,0,0,1-.26.74,5.66,5.66,0,0,1-.36.74,11.6,11.6,0,0,1-.24,1.64,9.71,9.71,0,0,0-.18,1.12,1.43,1.43,0,0,0,.18.55,1.19,1.19,0,0,0,.29.3,1.62,1.62,0,0,1,.14.47,6.89,6.89,0,0,0,.26.85,2.68,2.68,0,0,0,.46.78.72.72,0,0,0,.7.29c.17,0,.2,0,.13-.07s0-.07.16-.08a.38.38,0,0,1,.38.18.51.51,0,0,0,.43.23,2.78,2.78,0,0,0,.78-.65,11.83,11.83,0,0,0,.93-1,8.67,8.67,0,0,0,.83-1.21c.24-.41.47-.83.69-1.24q0-.29,0-.33c.66-.81,1.36-1.71,2.09-2.7s1.41-1.87,2-2.61c.06,0,.08.07,0,.12s0,.08,0,.12c0,.69.06,1.44.08,2.25a7.86,7.86,0,0,0,.21,1.92,9.16,9.16,0,0,0,.59,2.22c.3.75.63,1.48,1,2.16,0,.1.18.24.43.43a8.48,8.48,0,0,0,.88.54,6.09,6.09,0,0,0,.95.44,2.36,2.36,0,0,0,.64.15c.16,0,.44,0,.83.06a4.77,4.77,0,0,0,1.07,0,4.61,4.61,0,0,1,.35-.58,1.36,1.36,0,0,1,.5-.48,2.67,2.67,0,0,1,.79-.61,1.75,1.75,0,0,0,.69-.61.7.7,0,0,1,.26-.46,3.42,3.42,0,0,0,.4-.36.55.55,0,0,1-.12-.37.66.66,0,0,1,.17-.82.56.56,0,0,1,.14-.38s.1,0,.19-.1l.05-.05a.69.69,0,0,1-.38-.08.83.83,0,0,1,.21-.24l.21-.2s0-.1,0-.19a.16.16,0,0,1,0-.24,1.93,1.93,0,0,1,.11-.52l0,.28q.29,1.47.45,2c.11.37.19.63.24.75a.6.6,0,0,0,.19.28,3.89,3.89,0,0,0,.45.28,13.5,13.5,0,0,0,1.4,1.3,3.83,3.83,0,0,0,1.54.59l.53.7a.4.4,0,0,1,.3-.39,1.38,1.38,0,0,1,.57,0,4.14,4.14,0,0,1,.67.2,1.67,1.67,0,0,0,.55.13c.12,0,.18,0,.18-.1V181a3.39,3.39,0,0,0,.88-.28,3.65,3.65,0,0,1,.88-.28.75.75,0,0,1-.26,0c-.08,0,0-.08.07-.14a7.12,7.12,0,0,0,1-.09,6.33,6.33,0,0,0,.88-.24,2.56,2.56,0,0,1,.31-1.17.8.8,0,0,1,.93-.47c.09-.22.18-.43.26-.64a2.2,2.2,0,0,1,.26-.51c-.35-.08-.52-.24-.52-.46a1.46,1.46,0,0,0,.57-.32,2.11,2.11,0,0,1,.61-.37.73.73,0,0,1-.47-.18Q290.93,176,290.06,176.32ZM271.19,165.2l-.05-.24.33-.05,0,.24Zm12.27,6.93c-.59.65-.4-.33-.95.26.35-.73,0,0,.44-1s.87-1.92,1.31-2.71a3.11,3.11,0,0,1,.6-.82,3.71,3.71,0,0,0,.68-1,7.79,7.79,0,0,1,.67-1.17,5.83,5.83,0,0,1,.89-1.1.71.71,0,0,0,0,.7l.19-.26a.93.93,0,0,1,0,.1l0,.41.28-.28-.2.34a.49.49,0,0,1,.29.18.35.35,0,0,0,.12-.23c0-.07,0-.11.13-.11v.34a3,3,0,0,1-.43.94c-.29.49-.62,1-1,1.54s-.7,1-1,1.47-.47.69-.5.72C284.55,170.92,284.05,171.48,283.46,172.13Z" transform="translate(-21.09 -24.43)"/><path class="cls-4" d="M399.35,161.38c-.05.08-.08.07-.08,0s.08-.26,0-.48a2.82,2.82,0,0,0-.29-.48,3.11,3.11,0,0,0-1.14-.47,3.79,3.79,0,0,0-1.27-.16c-.13,0-.17,0-.09.08s0,.06-.21.09-.26,0-.25-.15-.08-.17-.26-.15c-.35,0-.5.12-.45.26s-.08.37-.36.68a2,2,0,0,1-.42,0h-.43a1.67,1.67,0,0,1-.94-.29l-.42,0a1.38,1.38,0,0,1-.58.66.83.83,0,0,1-.45.19,1.84,1.84,0,0,0-.63.19.13.13,0,0,0,0,.19.15.15,0,0,1,0,.2,8.74,8.74,0,0,0-.7.68,2.42,2.42,0,0,1-.72.54,8.94,8.94,0,0,0-1.1.93,7.62,7.62,0,0,0-.85.9c-.41.53-.91,1.28-1.51,2.25s-1.17,2-1.72,3.05a25.31,25.31,0,0,0-1.38,3.18,6.42,6.42,0,0,0-.44,2.5,2,2,0,0,0,.24.58,3.06,3.06,0,0,1,.31.66c.52.29,1,.59,1.47.9a3,3,0,0,0,2,.34,2.56,2.56,0,0,0,.54-.13,2.52,2.52,0,0,1,.54-.15,2.53,2.53,0,0,0,1.3-.64,10.65,10.65,0,0,0,1.36-1.33,15.26,15.26,0,0,0,1.15-1.42c.32-.47.55-.79.67-1,.28-.46.55-.87.82-1.24l.14-.22c0,.16,0,.32,0,.49a28.32,28.32,0,0,1-.22,2.89c-.07.32-.15.71-.25,1.18a7.09,7.09,0,0,1-.23.89,13.5,13.5,0,0,1-.39,3.1c-.28,1.17-.5,2.16-.67,2.95s-.29,1.53-.48,2.21a10.89,10.89,0,0,1-1.33,2.71,1,1,0,0,0-.14.49.66.66,0,0,1-.14.44,13.7,13.7,0,0,1-1.54,1.92,23.6,23.6,0,0,1-2.44,2.32,17.76,17.76,0,0,1-2.87,2,7.34,7.34,0,0,1-2.78,1,1,1,0,0,1-.92-.43,3.29,3.29,0,0,1-.51-1.12A4.58,4.58,0,0,1,378,194c0-.36,0-.57,0-.62a4.83,4.83,0,0,1-.47-.8,2.1,2.1,0,0,1-.25-.64,8.51,8.51,0,0,1,.07-1.19,8.09,8.09,0,0,0,0-1.62,1.32,1.32,0,0,1,.08-.59,1.18,1.18,0,0,0,.09-.46.33.33,0,0,0-.17-.29.44.44,0,0,0-.3-.05l-.39-3.5c.06-.18.05-.26,0-.25s-.13,0-.18-.12a.8.8,0,0,1-.07-.2c-.26.57-.54,1.17-.84,1.78a14.23,14.23,0,0,0-.72,1.86,7,7,0,0,0-.26,1.43,4.71,4.71,0,0,1-.31,1.39.74.74,0,0,1-.1-.46,2.34,2.34,0,0,0,0-.53c-.05.3-.08.59-.13.88a4.18,4.18,0,0,1-.18.79.47.47,0,0,0,0,.17,2,2,0,0,1,.06.34c0,.17,0,.43.08.76s.06.84.08,1.47a11.9,11.9,0,0,0,.78,1.94,9.14,9.14,0,0,0,1.35,2,8.23,8.23,0,0,0,1.94,1.66,6.5,6.5,0,0,0,2.59.91c.3.06.7.12,1.22.2a5.81,5.81,0,0,0,1.1.08,5.4,5.4,0,0,0,1.81-.61c.71-.36,1.42-.76,2.14-1.2a19.94,19.94,0,0,0,1.92-1.34,3.89,3.89,0,0,0,1-1c-.08-.13,0-.32.13-.54s.38-.48.6-.72l.65-.67a5.79,5.79,0,0,0,.46-.49c.33-.58.64-1.17.92-1.76s.56-1.16.87-1.74a16.14,16.14,0,0,0,1.08-3.08,1.27,1.27,0,0,0-.12-.62.7.7,0,0,1-.05-.52,2.55,2.55,0,0,1,.22-.54c.08-.19.09-.33,0-.44a3.81,3.81,0,0,0,1-2.47,5.48,5.48,0,0,1,.48-2.33.46.46,0,0,0,.07-.44.43.43,0,0,1,0-.39,30,30,0,0,1,.5-4c.15-.73.27-1.45.37-2.17l.65-1c0-.47,0-1,.06-1.62s.1-1.43.18-2.21.17-1.46.26-2,.15-.88.26-1.43a14.62,14.62,0,0,1,.38-1.55c.14-.48.26-.9.33-1.26a3,3,0,0,0,.09-.65C399.43,161.35,399.39,161.3,399.35,161.38Zm-5.77,4.32a3.25,3.25,0,0,1-.5,1.07c-.34.57-.72,1.15-1.14,1.76l-1.17,1.68c-.35.52-.54.79-.57.83-.47.54-1.05,1.19-1.73,1.93s-.47-.38-1.1.3c.41-.84,0,0,.51-1.17A29.76,29.76,0,0,1,389.4,169a3.06,3.06,0,0,1,.69-.94,4.08,4.08,0,0,0,.78-1.13,10.9,10.9,0,0,1,.78-1.35,7.21,7.21,0,0,1,1-1.25.83.83,0,0,0-.05.8l.08-.1h0l.11-.15.05.5.18-.18c-.05.08-.1.18-.16.26a.56.56,0,0,1,.41.23.47.47,0,0,0,.14-.27q0-.12.15-.12Z" transform="translate(-21.09 -24.43)"/><path class="cls-4" d="M223.3,164.33a3.11,3.11,0,0,0-.66-.93,3.38,3.38,0,0,0-1.19-.71c-.5-.2-1.16-.43-1.95-.7L209,174.73a5.91,5.91,0,0,1,0-.65,1.34,1.34,0,0,1,.1-.49,1.42,1.42,0,0,1,.21-.39c.08-.1.17-.21.26-.34.45-1,.88-2,1.29-3.08s.79-1.94,1.14-2.71c.19-.41.38-.85.59-1.32a5.87,5.87,0,0,1,.59-1.07,5.5,5.5,0,0,0,0-.58,1.26,1.26,0,0,0-.23-.61,2.15,2.15,0,0,0-.62-.62,2.24,2.24,0,0,0-.81-.35,1.65,1.65,0,0,0-.85.07c-.32.48-.62,1-.93,1.54s-.59,1-.87,1.44c-.13.25-.39.84-.79,1.77s-.81,2-1.26,3.08-.83,2.26-1.16,3.38a7.06,7.06,0,0,0-.4,2.52,6,6,0,0,0,.24,1.18.88.88,0,0,0,.05.15c-.09,0-.15,0-.15.07a.41.41,0,0,1-.05.16c-.09-.12-.09-.21,0-.28a10,10,0,0,0-1.4.93c-.4.32-.65.49-.78.49s-.22,0-.19-.07,0-.07-.24-.06a.53.53,0,0,0-.31.14,3.51,3.51,0,0,1-.36.29l-1.18.45a1.44,1.44,0,0,1-.48.16,1,1,0,0,1-.4-.06.7.7,0,0,0-.36-.07.31.31,0,0,0-.23.12.45.45,0,0,1-.38.13,2.17,2.17,0,0,1-1.14-.35c-.09-.1-.2-.22-.31-.36a1,1,0,0,1-.21-.4c0-.28-.06-.65-.08-1.11s0-.75,0-.88a13.16,13.16,0,0,1,.1-1.44,19.14,19.14,0,0,1,.28-1.91c.13-.65.25-1.29.36-1.93s.21-1.14.3-1.53a12.85,12.85,0,0,1,.43-1.67c.19-.57.4-1.13.62-1.67l4.65-15.19a1,1,0,0,1-.09-.64,1,1,0,0,0-.1-.64,4.62,4.62,0,0,0-.31-.78c-.14-.29-.25-.55-.35-.77h-.38s0,0-.1.05a1.24,1.24,0,0,1-.62-.28.78.78,0,0,0-.52-.22,1,1,0,0,0-.35,0,1.14,1.14,0,0,1-.26.05,2.35,2.35,0,0,1-.43,1.53,7.39,7.39,0,0,0-.9,2,1.86,1.86,0,0,1-.38.72,2.56,2.56,0,0,0-.43.68c-.41,1.18-.8,2.28-1.16,3.31s-.64,1.9-.83,2.56-.37,1.37-.53,2.1-.28,1.37-.38,1.91a1.05,1.05,0,0,1-.26.5,1.24,1.24,0,0,0-.26.6c-.44,1.75-.88,3.48-1.3,5.2a22.7,22.7,0,0,0-.64,5.52,11.39,11.39,0,0,0,.21,2,5.2,5.2,0,0,0,.2.75h0c-.12,0-.19,0-.19.07a.41.41,0,0,1,0,.17c-.1-.13-.1-.22,0-.29a9.44,9.44,0,0,0-1.4.93,1.9,1.9,0,0,1-.79.49c-.15,0-.22,0-.19-.07s0-.06-.23-.06a.47.47,0,0,0-.31.15l-.36.29c-.57.2-1,.35-1.18.45a1.36,1.36,0,0,1-.48.15.79.79,0,0,1-.4-.07.84.84,0,0,0-.36-.06.27.27,0,0,0-.23.13.49.49,0,0,1-.38.12,2.1,2.1,0,0,1-1.14-.36,2.25,2.25,0,0,1-.31-.35,1.23,1.23,0,0,1-.22-.4c0-.28,0-.65-.07-1.11s0-.75,0-.88c0-.34,0-.83.09-1.45s.16-1.25.29-1.9.25-1.29.35-1.93.22-1.15.31-1.53a12.45,12.45,0,0,1,.43-1.67c.19-.57.4-1.13.62-1.67l4.65-15.19a1,1,0,0,1-.1-.64,1,1,0,0,0-.09-.64,5.66,5.66,0,0,0-.31-.78l-.36-.77h-.37s0,.05-.1.06a1.2,1.2,0,0,1-.62-.28.8.8,0,0,0-.52-.22,1.12,1.12,0,0,0-.36.05l-.25.06a2.46,2.46,0,0,1-.43,1.52,7.68,7.68,0,0,0-.91,2,1.63,1.63,0,0,1-.38.72,2.94,2.94,0,0,0-.42.67c-.41,1.19-.8,2.29-1.17,3.33s-.64,1.88-.83,2.55-.36,1.37-.52,2.1-.29,1.37-.38,1.91a1.2,1.2,0,0,1-.26.5,1.24,1.24,0,0,0-.26.6q-.66,2.63-1.31,5.2a23.21,23.21,0,0,0-.64,5.52,10.61,10.61,0,0,0,.22,2,2.68,2.68,0,0,0,.07.27c-.56.28-1.15.56-1.81.86s-1.4.62-2,.89a4.26,4.26,0,0,1-1.23.4,2.65,2.65,0,0,0-.67.11,1.2,1.2,0,0,1-.75,0,5.49,5.49,0,0,0-.08-.81,4.71,4.71,0,0,1-.07-.66c0-.06,0-.38.07-.95s.12-1.24.22-2,.21-1.57.35-2.43.28-1.58.41-2.19c.09-.44.21-1,.35-1.55s.3-1.15.48-1.67.31-1,.4-1.36a3.66,3.66,0,0,0,.14-.72c0-.19,0-.24-.07-.16s-.07.07-.07,0,.1-.27,0-.53a3.21,3.21,0,0,0-.21-.56,2.8,2.8,0,0,0-1-.63,2.88,2.88,0,0,0-1.12-.28c-.13,0-.16,0-.09.07s0,.07-.19.08-.23-.06-.22-.19-.05-.19-.21-.18c-.32,0-.46.09-.43.24s-.09.4-.38.72a1.23,1.23,0,0,1-.38,0,1.64,1.64,0,0,0-.38,0,1.25,1.25,0,0,1-.8-.41h-.39a1.39,1.39,0,0,1-.57.67.66.66,0,0,1-.42.15,1.65,1.65,0,0,0-.57.16.17.17,0,0,0-.05.21.17.17,0,0,1,0,.21,8.93,8.93,0,0,0-.68.69,2.36,2.36,0,0,1-.69.53,10.71,10.71,0,0,0-1.07.92,7,7,0,0,0-.83.92c-.41.55-.93,1.33-1.55,2.33s-1.22,2.09-1.8,3.22A31.84,31.84,0,0,0,162,177a8.31,8.31,0,0,0-.61,2.72,2.43,2.43,0,0,0,.16.66,6,6,0,0,1,.22.75q.66.55,1.23,1.14a2.28,2.28,0,0,0,1.76.56,1.63,1.63,0,0,0,.49-.11,2.07,2.07,0,0,1,.5-.1,2.09,2.09,0,0,0,1.22-.59,13,13,0,0,0,1.33-1.34c.42-.49.8-1,1.14-1.47s.56-.81.68-1c.29-.48.57-.92.84-1.3s.52-.81.78-1.25c.06.44.1.88.12,1.33s0,.8,0,1.08a4.06,4.06,0,0,0,.31.8,8.25,8.25,0,0,0,.81,1.46,6.63,6.63,0,0,0,1.18,1.36,2.06,2.06,0,0,0,1.4.58l2,0a1.29,1.29,0,0,0,.5-.23l.8-.51.91-.59a2,2,0,0,1,.82-.35c-.06,0-.14,0-.23-.13s-.14-.16-.14-.19c.34-.26.69-.54,1-.83a7.11,7.11,0,0,0,.78-.78.41.41,0,0,1,0-.44,9.29,9.29,0,0,0,.56,1.48,8.78,8.78,0,0,0,1.42,2.11,5,5,0,0,0,2,1.34,6.36,6.36,0,0,1,1,.36,3.76,3.76,0,0,0,.81.27c.16,0,.21,0,.17-.1s0-.1.21-.1a1.44,1.44,0,0,1,.43.06c.12.05.33,0,.62-.27l.28.28.81-.24a5.56,5.56,0,0,0,.76-.27,1.31,1.31,0,0,0,.66-.42,5.81,5.81,0,0,1,.53-.5,4.79,4.79,0,0,1,.92-.64,6.85,6.85,0,0,0,.93-.59,2.74,2.74,0,0,0,.23-.5,1,1,0,0,1,.34-.43,9.14,9.14,0,0,0,1.09,1.52,4.91,4.91,0,0,0,2,1.34,7.75,7.75,0,0,1,1,.35,2.7,2.7,0,0,0,.8.27c.16,0,.22,0,.17-.09s0-.09.22-.1a1,1,0,0,1,.42.06c.13,0,.34-.05.62-.27l.29.27.8-.22a6.5,6.5,0,0,0,.76-.28,1.41,1.41,0,0,0,.67-.42,6.12,6.12,0,0,1,.52-.51,5.27,5.27,0,0,1,.92-.63,6.27,6.27,0,0,0,.93-.59,3.41,3.41,0,0,0,.24-.5.94.94,0,0,1,.42-.51c-.34,0-.43-.23-.26-.61v0a2.75,2.75,0,0,0,.59.49,1.79,1.79,0,0,0,1.28.21,3.89,3.89,0,0,0,1.42-.64,5.78,5.78,0,0,0,1.28-1q2.14-2.32,3.94-4.52l3.76-4.56a.2.2,0,0,1,0,.14l.05.05-.54,2.1c-.28,1-.57,2.29-.88,3.72s-.65,3-1,4.72-.63,3.41-.9,5.07-.47,3.27-.59,4.78a.57.57,0,0,0,0,.13,12,12,0,0,1-.9,1.69.73.73,0,0,0-.12.41.54.54,0,0,1-.12.36,11.46,11.46,0,0,1-1.29,1.61,19,19,0,0,1-2,1.94,14.69,14.69,0,0,1-2.39,1.64,6.14,6.14,0,0,1-2.33.81.81.81,0,0,1-.77-.35,2.87,2.87,0,0,1-.42-.94,3.12,3.12,0,0,1-.14-1c0-.3,0-.47,0-.53a3.28,3.28,0,0,1-.4-.66,1.91,1.91,0,0,1-.2-.53,6.18,6.18,0,0,1,0-1,6.91,6.91,0,0,0,0-1.35,1.17,1.17,0,0,1,.07-.49,1.14,1.14,0,0,0,.07-.39.27.27,0,0,0-.14-.24.42.42,0,0,0-.25-.05l-.32-2.91c0-.15,0-.22,0-.22a.13.13,0,0,1-.14-.09.38.38,0,0,1-.06-.18c-.22.48-.45,1-.7,1.5a9.52,9.52,0,0,0-.6,1.55,5,5,0,0,0-.22,1.19,3.65,3.65,0,0,1-.27,1.17.72.72,0,0,1-.08-.39,1.61,1.61,0,0,0,0-.44c0,.25-.07.49-.1.73a3.88,3.88,0,0,1-.16.67,1,1,0,0,0,0,.14,1.43,1.43,0,0,1,0,.28c0,.15,0,.36.06.64s.05.7.07,1.22a9.59,9.59,0,0,0,.65,1.62,7.86,7.86,0,0,0,1.13,1.7,7,7,0,0,0,1.62,1.38,5.4,5.4,0,0,0,2.17.76c.25.05.58.11,1,.17a5.48,5.48,0,0,0,.92.07,4.46,4.46,0,0,0,1.51-.51c.59-.3,1.19-.64,1.79-1a15.54,15.54,0,0,0,1.61-1.12,3.41,3.41,0,0,0,.85-.86c-.07-.11,0-.26.11-.45a6.46,6.46,0,0,1,.49-.6l.55-.56a4,4,0,0,0,.38-.41c.28-.48.54-1,.77-1.47s.47-1,.73-1.46a12.44,12.44,0,0,0,.9-2.57,1,1,0,0,0-.1-.51.59.59,0,0,1,0-.44,2.58,2.58,0,0,1,.18-.46.32.32,0,0,0,0-.36,3.15,3.15,0,0,0,.84-2.07,4.73,4.73,0,0,1,.18-1.26l.07,0,.09-.46,0-.07h0c0-.2.08-.4.13-.59.31-1.38.62-2.77.94-4.17l.33-.34c.23-1.05.48-2.15.76-3.29s.54-2.26.76-3.34a.64.64,0,0,0,.07-.41c0-.14,0-.26,0-.35a4.61,4.61,0,0,1,.36-1.2,4.73,4.73,0,0,0,.35-1.09c0-.23.07-.47.12-.75a1.4,1.4,0,0,0-.07-.78,5,5,0,0,0,.38-1.52,5.21,5.21,0,0,0,.05-1.09A3.84,3.84,0,0,0,223.3,164.33Zm-51.45,5.48a2.75,2.75,0,0,1-.43.95q-.43.74-1,1.53l-1,1.48c-.3.45-.47.69-.49.71-.42.48-.92,1.05-1.5,1.69s-.41-.33-1,.27a9.54,9.54,0,0,0,.44-1,30,30,0,0,1,1.32-2.71,3.11,3.11,0,0,1,.59-.82,3.43,3.43,0,0,0,.68-1,8,8,0,0,1,.68-1.17,5.83,5.83,0,0,1,.88-1.1.77.77,0,0,0-.07.56c.11-.13.21-.29.32-.42a.75.75,0,0,1-.07.24.22.22,0,0,0,.07.28l.28-.29-.36.62a.45.45,0,0,1,.36.2.32.32,0,0,0,.13-.23c0-.07,0-.11.12-.11Zm22.58,9.77a2.43,2.43,0,0,0,.18.32A.26.26,0,0,1,194.43,179.58Z" transform="translate(-21.09 -24.43)"/></svg>