<?xml version="1.0" encoding="UTF-8"?>
<svg xmlns="http://www.w3.org/2000/svg" xmlns:xlink="http://www.w3.org/1999/xlink" width="1864.67pt" height="792pt" viewBox="0 0 1864.67 792" version="1.1">
<g id="surface1">
<path style=" stroke:none;fill-rule:nonzero;fill:rgb(13.729858%,12.159729%,12.548828%);fill-opacity:1;" d="M 180.664063 431.25 C 248.316406 431.25 298.3125 400.28125 312.164063 332.402344 L 319.050781 288.761719 L 273.625 288.761719 L 291.34375 176.835938 L 245.761719 176.835938 L 223.839844 316.335938 C 220.839844 335.929688 217.199219 353.203125 192.949219 353.203125 C 168.703125 353.203125 171.03125 335.925781 174.019531 316.335938 L 195.941406 176.835938 L 104.941406 176.835938 L 81.691406 324.964844 C 70.066406 398.03125 110.585938 431.25 180.664063 431.25 "/>
<path style=" stroke:none;fill-rule:nonzero;fill:rgb(13.729858%,12.159729%,12.548828%);fill-opacity:1;" d="M 326.023438 245.253906 L 371.328125 245.253906 L 297.183594 427.261719 L 382.871094 427.261719 L 419.738281 176.835938 L 336.710938 176.835938 L 325.90625 245.253906 Z M 326.023438 245.253906 "/>
<path style=" stroke:none;fill-rule:nonzero;fill:rgb(13.729858%,12.159729%,12.548828%);fill-opacity:1;" d="M 404.144531 319.316406 L 425.398438 317.65625 L 408.128906 427.261719 L 494.484375 427.261719 L 511.75 317.65625 L 539.980469 319.316406 L 550.941406 251.898438 L 522.046875 253.226563 L 531.34375 194.109375 L 440.097656 225.25 L 435.691406 253.226563 L 415.105469 251.898438 Z M 404.144531 319.316406 "/>
<path style=" stroke:none;fill-rule:nonzero;fill:rgb(13.729858%,12.159729%,12.548828%);fill-opacity:1;" d="M 612.75 427.261719 L 623.378906 359.507813 C 627.03125 337.59375 640.316406 324.300781 662.566406 324.300781 C 673.527344 324.300781 679.175781 328.625 687.480469 333.933594 L 701.101563 246.914063 C 672.203125 246.253906 655.925781 251.234375 636.996094 274.484375 L 634.996094 274.484375 L 640.644531 250.902344 L 554.964844 250.902344 L 527.0625 427.261719 Z M 612.75 427.261719 "/>
<path style=" stroke:none;fill-rule:nonzero;fill:rgb(13.729858%,12.159729%,12.548828%);fill-opacity:1;" d="M 773.777344 338.246094 C 776.097656 325.296875 786.394531 314 800.023438 314 C 813.65625 314 821.277344 323.964844 819.292969 337.578125 C 816.964844 351.195313 808.332031 364.148438 792.054688 364.148438 C 776.425781 364.15625 771.777344 352.199219 773.769531 338.246094 Z M 748.527344 431.246094 C 772.777344 431.246094 788.382813 420.621094 806.644531 404.011719 L 808.644531 404.011719 L 802.339844 427.265625 L 886.367188 427.265625 L 914.265625 250.902344 L 830.234375 250.902344 L 829.5625 271.839844 L 827.5625 271.839844 C 817.597656 254.566406 801.316406 246.925781 780.0625 246.925781 C 730.25 246.925781 695.707031 295.425781 688.730469 339.925781 C 681.769531 382.757813 700.714844 431.246094 748.527344 431.246094 "/>
<path style=" stroke:none;fill-rule:nonzero;fill:rgb(13.729858%,12.159729%,12.548828%);fill-opacity:1;" d="M 1010.855469 245.261719 L 1019.492188 245.261719 C 1034.4375 245.261719 1052.707031 246.261719 1049.71875 265.855469 C 1046.394531 286.101563 1028.792969 288.769531 1012.847656 288.769531 L 1003.882813 288.769531 Z M 981.964844 427.261719 L 993.921875 351.871094 L 1040.417969 351.871094 C 1091.234375 351.871094 1128.101563 319.984375 1136.398438 268.839844 C 1146.035156 206.730469 1107.503906 176.835938 1049.054688 176.835938 L 933.800781 176.835938 L 894.28125 427.261719 Z M 981.964844 427.261719 "/>
<path style=" stroke:none;fill-rule:nonzero;fill:rgb(13.729858%,12.159729%,12.548828%);fill-opacity:1;" d="M 1201.964844 427.261719 L 1212.589844 359.507813 C 1216.246094 337.59375 1229.53125 324.300781 1251.78125 324.300781 C 1262.742188 324.300781 1268.394531 328.625 1276.691406 333.933594 L 1290.308594 246.914063 C 1261.414063 246.253906 1245.140625 251.234375 1226.207031 274.484375 L 1224.210938 274.484375 L 1229.859375 250.902344 L 1144.175781 250.902344 L 1116.277344 427.261719 Z M 1201.964844 427.261719 "/>
<path style=" stroke:none;fill-rule:nonzero;fill:rgb(13.729858%,12.159729%,12.548828%);fill-opacity:1;" d="M 1390.628906 294.085938 C 1402.914063 294.085938 1409.558594 305.046875 1407.898438 317.003906 L 1367.714844 317.003906 C 1369.371094 304.707031 1377.675781 294.085938 1390.628906 294.085938 M 1371.03125 431.25 C 1411.554688 431.25 1462.027344 411.652344 1480.300781 369.136719 L 1396.9375 369.136719 C 1393.9375 377.441406 1386.308594 383.753906 1377.339844 383.753906 C 1359.40625 383.753906 1359.40625 367.8125 1361.730469 353.527344 L 1486.28125 353.527344 C 1501.226563 287.433594 1458.046875 246.914063 1395.28125 246.914063 C 1339.152344 246.914063 1288.335938 283.449219 1279.027344 341.917969 C 1269.398438 402.679688 1315.5625 431.25 1371.03125 431.25 "/>
<path style=" stroke:none;fill-rule:nonzero;fill:rgb(13.729858%,12.159729%,12.548828%);fill-opacity:1;" d="M 1538.214844 357.515625 C 1545.191406 358.515625 1555.484375 358.839844 1553.820313 368.476563 C 1552.824219 375.117188 1545.191406 378.109375 1539.539063 378.109375 C 1524.929688 378.109375 1509.316406 369.136719 1498.359375 361.828125 L 1493.714844 358.511719 L 1463.160156 411.648438 C 1487.070313 422.613281 1512.972656 431.25 1540.875 431.25 C 1580.734375 431.25 1629.222656 412.316406 1636.527344 366.484375 C 1642.175781 330.945313 1618.921875 320.316406 1589.027344 315.332031 C 1577.40625 313.335938 1568.4375 312.679688 1569.765625 304.042969 C 1570.769531 297.730469 1578.066406 296.074219 1583.382813 296.074219 C 1597.335938 296.074219 1610.613281 302.714844 1620.578125 310.683594 L 1649.148438 261.863281 C 1631.542969 251.230469 1604.976563 246.917969 1583.050781 246.917969 C 1545.191406 246.917969 1498.027344 264.519531 1491.054688 308.691406 C 1485.738281 341.90625 1510.316406 353.527344 1538.214844 357.515625 "/>
<path style=" stroke:none;fill-rule:nonzero;fill:rgb(13.729858%,12.159729%,12.548828%);fill-opacity:1;" d="M 1696.78125 357.515625 C 1703.757813 358.515625 1714.054688 358.839844 1712.390625 368.476563 C 1711.390625 375.117188 1703.757813 378.109375 1698.113281 378.109375 C 1683.5 378.109375 1667.886719 369.136719 1656.929688 361.828125 L 1652.277344 358.511719 L 1621.714844 411.648438 C 1645.628906 422.613281 1671.53125 431.25 1699.433594 431.25 C 1739.289063 431.25 1787.78125 412.316406 1795.085938 366.484375 C 1800.730469 330.945313 1777.484375 320.316406 1747.585938 315.332031 C 1735.964844 313.335938 1726.996094 312.679688 1728.328125 304.042969 C 1729.328125 297.730469 1736.625 296.074219 1741.941406 296.074219 C 1755.890625 296.074219 1769.171875 302.714844 1779.136719 310.683594 L 1807.714844 261.863281 C 1790.113281 251.230469 1763.542969 246.917969 1741.617188 246.917969 C 1703.757813 246.917969 1656.597656 264.519531 1649.621094 308.691406 C 1644.304688 341.90625 1668.886719 353.527344 1696.78125 357.515625 "/>
<path style=" stroke:none;fill-rule:nonzero;fill:rgb(13.729858%,12.159729%,12.548828%);fill-opacity:1;" d="M 101.351563 525.289063 C 101.351563 538.644531 104.046875 548.769531 109.4375 555.667969 C 114.824219 562.566406 122.8125 566.019531 133.394531 566.019531 C 143.929688 566.019531 151.878906 562.605469 157.246094 555.78125 C 162.613281 548.957031 165.292969 538.792969 165.292969 525.289063 C 165.292969 511.988281 162.636719 501.902344 157.320313 495.023438 C 152.003906 488.152344 144.078125 484.714844 133.546875 484.714844 C 122.914063 484.714844 114.890625 488.152344 109.472656 495.023438 C 104.058594 501.902344 101.351563 511.988281 101.351563 525.289063 M 184.136719 525.289063 C 184.136719 538.445313 181.625 549.527344 176.605469 558.523438 C 171.585938 567.523438 164.28125 573.855469 154.6875 577.511719 L 180.648438 605.480469 L 156.765625 605.480469 L 136.289063 581.148438 L 133.394531 581.148438 C 117.027344 581.148438 104.453125 576.289063 95.675781 566.570313 C 86.898438 556.855469 82.511719 543.046875 82.511719 525.144531 C 82.511719 507.242188 86.921875 493.492188 95.75 483.898438 C 104.578125 474.308594 117.175781 469.507813 133.546875 469.507813 C 149.667969 469.507813 162.128906 474.378906 170.933594 484.121094 C 179.734375 493.863281 184.136719 507.589844 184.136719 525.289063 "/>
<path style=" stroke:none;fill-rule:nonzero;fill:rgb(13.729858%,12.159729%,12.548828%);fill-opacity:1;" d="M 263.4375 579.664063 L 260.988281 568.910156 L 260.097656 568.910156 C 257.671875 572.71875 254.226563 575.710938 249.75 577.886719 C 245.273438 580.0625 240.167969 581.148438 234.433594 581.148438 C 224.488281 581.148438 217.074219 578.679688 212.175781 573.730469 C 207.28125 568.785156 204.832031 561.292969 204.832031 551.257813 L 204.832031 497.621094 L 222.414063 497.621094 L 222.414063 548.214844 C 222.414063 554.492188 223.699219 559.207031 226.269531 562.34375 C 228.84375 565.484375 232.871094 567.058594 238.363281 567.058594 C 245.679688 567.058594 251.058594 564.863281 254.496094 560.488281 C 257.933594 556.113281 259.652344 548.785156 259.652344 538.496094 L 259.652344 497.621094 L 277.15625 497.621094 L 277.15625 579.664063 Z M 263.4375 579.664063 "/>
<path style=" stroke:none;fill-rule:nonzero;fill:rgb(13.729858%,12.159729%,12.548828%);fill-opacity:1;" d="M 327.378906 567.796875 C 333.707031 567.796875 338.789063 566.03125 342.621094 562.492188 C 346.453125 558.957031 348.371094 554 348.371094 547.617188 L 348.371094 540.5 L 337.839844 540.945313 C 329.628906 541.242188 323.65625 542.613281 319.921875 545.0625 C 316.1875 547.507813 314.324219 551.257813 314.324219 556.300781 C 314.324219 559.960938 315.410156 562.789063 317.589844 564.792969 C 319.761719 566.792969 323.023438 567.796875 327.378906 567.796875 M 353.34375 579.664063 L 349.855469 568.238281 L 349.261719 568.238281 C 345.304688 573.238281 341.324219 576.636719 337.320313 578.445313 C 333.3125 580.246094 328.167969 581.148438 321.890625 581.148438 C 313.828125 581.148438 307.535156 578.972656 303.011719 574.621094 C 298.484375 570.269531 296.222656 564.113281 296.222656 556.148438 C 296.222656 547.695313 299.363281 541.316406 305.644531 537.011719 C 311.921875 532.710938 321.492188 530.359375 334.351563 529.964844 L 348.519531 529.519531 L 348.519531 525.144531 C 348.519531 519.902344 347.296875 515.984375 344.847656 513.386719 C 342.402344 510.789063 338.605469 509.488281 333.460938 509.488281 C 329.257813 509.488281 325.230469 510.109375 321.371094 511.347656 C 317.511719 512.582031 313.804688 514.042969 310.242188 515.722656 L 304.605469 503.257813 C 309.058594 500.9375 313.925781 499.167969 319.21875 497.957031 C 324.511719 496.746094 329.503906 496.140625 334.203125 496.140625 C 344.636719 496.140625 352.515625 498.414063 357.832031 502.964844 C 363.144531 507.515625 365.804688 514.660156 365.804688 524.402344 L 365.804688 579.664063 Z M 353.34375 579.664063 "/>
<path style=" stroke:none;fill-rule:nonzero;fill:rgb(13.729858%,12.159729%,12.548828%);fill-opacity:1;" d="M 407.566406 579.664063 L 390.132813 579.664063 L 390.132813 464.242188 L 407.566406 464.242188 Z M 407.566406 579.664063 "/>
<path style=" stroke:none;fill-rule:nonzero;fill:rgb(13.729858%,12.159729%,12.548828%);fill-opacity:1;" d="M 449.921875 579.664063 L 432.488281 579.664063 L 432.488281 497.621094 L 449.921875 497.621094 Z M 431.453125 475.886719 C 431.453125 472.773438 432.304688 470.375 434.011719 468.691406 C 435.71875 467.011719 438.152344 466.167969 441.316406 466.167969 C 444.386719 466.167969 446.769531 467.011719 448.476563 468.691406 C 450.183594 470.375 451.035156 472.773438 451.035156 475.886719 C 451.035156 478.855469 450.183594 481.191406 448.476563 482.898438 C 446.769531 484.601563 444.386719 485.457031 441.316406 485.457031 C 438.152344 485.457031 435.71875 484.601563 434.011719 482.898438 C 432.304688 481.191406 431.453125 478.855469 431.453125 475.886719 "/>
<path style=" stroke:none;fill-rule:nonzero;fill:rgb(13.729858%,12.159729%,12.548828%);fill-opacity:1;" d="M 505.410156 567.054688 C 509.664063 567.054688 513.917969 566.386719 518.171875 565.054688 L 518.171875 578.179688 C 516.242188 579.023438 513.757813 579.726563 510.714844 580.296875 C 507.671875 580.867188 504.519531 581.148438 501.257813 581.148438 C 484.738281 581.148438 476.480469 572.445313 476.480469 555.039063 L 476.480469 510.824219 L 465.277344 510.824219 L 465.277344 503.113281 L 477.296875 496.730469 L 483.230469 479.375 L 493.984375 479.375 L 493.984375 497.621094 L 517.351563 497.621094 L 517.351563 510.824219 L 493.984375 510.824219 L 493.984375 554.742188 C 493.984375 558.945313 495.035156 562.046875 497.140625 564.050781 C 499.238281 566.050781 502 567.054688 505.410156 567.054688 "/>
<path style=" stroke:none;fill-rule:nonzero;fill:rgb(13.729858%,12.159729%,12.548828%);fill-opacity:1;" d="M 522.101563 497.621094 L 541.089844 497.621094 L 557.78125 544.132813 C 560.304688 550.761719 561.984375 556.992188 562.828125 562.828125 L 563.417969 562.828125 C 563.863281 560.109375 564.679688 556.808594 565.867188 552.925781 C 567.054688 549.042969 573.335938 530.605469 584.707031 497.621094 L 603.550781 497.621094 L 568.464844 590.566406 C 562.082031 607.632813 551.449219 616.164063 536.566406 616.164063 C 532.707031 616.164063 528.949219 615.742188 525.289063 614.902344 L 525.289063 601.101563 C 527.910156 601.699219 530.902344 601.992188 534.265625 601.992188 C 542.671875 601.992188 548.582031 597.121094 551.996094 587.382813 L 555.039063 579.664063 Z M 522.101563 497.621094 "/>
<path style=" stroke:none;fill-rule:nonzero;fill:rgb(13.729858%,12.159729%,12.548828%);fill-opacity:1;" d="M 703.472656 484.863281 C 693.285156 484.863281 685.273438 488.472656 679.4375 495.691406 C 673.601563 502.914063 670.6875 512.878906 670.6875 525.585938 C 670.6875 538.890625 673.492188 548.957031 679.105469 555.78125 C 684.71875 562.605469 692.839844 566.019531 703.472656 566.019531 C 708.074219 566.019531 712.523438 565.558594 716.828125 564.644531 C 721.128906 563.730469 725.601563 562.554688 730.25 561.121094 L 730.25 576.328125 C 721.746094 579.542969 712.101563 581.148438 701.320313 581.148438 C 685.445313 581.148438 673.253906 576.339844 664.75 566.722656 C 656.242188 557.101563 651.992188 543.34375 651.992188 525.441406 C 651.992188 514.164063 654.058594 504.296875 658.1875 495.84375 C 662.316406 487.386719 668.285156 480.910156 676.101563 476.40625 C 683.914063 471.910156 693.085938 469.65625 703.621094 469.65625 C 714.699219 469.65625 724.9375 471.980469 734.332031 476.628906 L 727.953125 491.390625 C 724.292969 489.660156 720.421875 488.136719 716.34375 486.828125 C 712.261719 485.519531 707.972656 484.863281 703.472656 484.863281 "/>
<path style=" stroke:none;fill-rule:nonzero;fill:rgb(13.729858%,12.159729%,12.548828%);fill-opacity:1;" d="M 809.621094 579.664063 L 807.175781 568.910156 L 806.285156 568.910156 C 803.859375 572.71875 800.410156 575.710938 795.9375 577.886719 C 791.460938 580.0625 786.355469 581.148438 780.617188 581.148438 C 770.679688 581.148438 763.261719 578.679688 758.363281 573.730469 C 753.46875 568.785156 751.019531 561.292969 751.019531 551.257813 L 751.019531 497.621094 L 768.601563 497.621094 L 768.601563 548.214844 C 768.601563 554.492188 769.886719 559.207031 772.457031 562.34375 C 775.027344 565.484375 779.0625 567.058594 784.550781 567.058594 C 791.867188 567.058594 797.246094 564.863281 800.683594 560.488281 C 804.121094 556.113281 805.839844 548.785156 805.839844 538.496094 L 805.839844 497.621094 L 823.347656 497.621094 L 823.347656 579.664063 Z M 809.621094 579.664063 "/>
<path style=" stroke:none;fill-rule:nonzero;fill:rgb(13.729858%,12.159729%,12.548828%);fill-opacity:1;" d="M 903.316406 556.300781 C 903.316406 564.3125 900.398438 570.453125 894.558594 574.734375 C 888.722656 579.011719 880.367188 581.148438 869.488281 581.148438 C 858.558594 581.148438 849.78125 579.492188 843.152344 576.179688 L 843.152344 561.121094 C 852.796875 565.570313 861.773438 567.796875 870.082031 567.796875 C 880.8125 567.796875 886.175781 564.558594 886.175781 558.078125 C 886.175781 556.003906 885.585938 554.273438 884.398438 552.886719 C 883.210938 551.5 881.257813 550.070313 878.539063 548.582031 C 875.816406 547.101563 872.035156 545.417969 867.1875 543.539063 C 857.742188 539.878906 851.351563 536.222656 848.011719 532.5625 C 844.671875 528.902344 843.003906 524.152344 843.003906 518.316406 C 843.003906 511.296875 845.835938 505.847656 851.5 501.960938 C 857.160156 498.078125 864.863281 496.140625 874.605469 496.140625 C 884.25 496.140625 893.375 498.09375 901.976563 501.996094 L 896.339844 515.128906 C 887.488281 511.472656 880.046875 509.640625 874.011719 509.640625 C 864.816406 509.640625 860.214844 512.261719 860.214844 517.5 C 860.214844 520.074219 861.414063 522.25 863.8125 524.03125 C 866.210938 525.808594 871.441406 528.257813 879.503906 531.371094 C 886.277344 533.996094 891.199219 536.394531 894.265625 538.570313 C 897.332031 540.746094 899.605469 543.253906 901.089844 546.101563 C 902.574219 548.945313 903.316406 552.34375 903.316406 556.300781 "/>
<path style=" stroke:none;fill-rule:nonzero;fill:rgb(13.729858%,12.159729%,12.548828%);fill-opacity:1;" d="M 952.71875 567.054688 C 956.972656 567.054688 961.222656 566.386719 965.476563 565.054688 L 965.476563 578.179688 C 963.546875 579.023438 961.0625 579.726563 958.019531 580.296875 C 954.980469 580.867188 951.828125 581.148438 948.5625 581.148438 C 932.042969 581.148438 923.785156 572.445313 923.785156 555.039063 L 923.785156 510.824219 L 912.585938 510.824219 L 912.585938 503.113281 L 924.601563 496.730469 L 930.539063 479.375 L 941.292969 479.375 L 941.292969 497.621094 L 964.660156 497.621094 L 964.660156 510.824219 L 941.292969 510.824219 L 941.292969 554.742188 C 941.292969 558.945313 942.339844 562.046875 944.449219 564.050781 C 946.546875 566.050781 949.308594 567.054688 952.71875 567.054688 "/>
<path style=" stroke:none;fill-rule:nonzero;fill:rgb(13.729858%,12.159729%,12.548828%);fill-opacity:1;" d="M 994.925781 538.496094 C 994.925781 557.4375 1001.921875 566.90625 1015.914063 566.90625 C 1029.765625 566.90625 1036.6875 557.4375 1036.6875 538.496094 C 1036.6875 519.753906 1029.714844 510.382813 1015.769531 510.382813 C 1008.449219 510.382813 1003.144531 512.804688 999.859375 517.652344 C 996.566406 522.5 994.925781 529.445313 994.925781 538.496094 M 1054.640625 538.496094 C 1054.640625 551.898438 1051.203125 562.359375 1044.328125 569.875 C 1037.457031 577.390625 1027.882813 581.148438 1015.621094 581.148438 C 1007.953125 581.148438 1001.179688 579.421875 995.292969 575.957031 C 989.410156 572.496094 984.886719 567.523438 981.722656 561.046875 C 978.558594 554.570313 976.972656 547.050781 976.972656 538.496094 C 976.972656 525.195313 980.386719 514.808594 987.210938 507.34375 C 994.035156 499.871094 1003.652344 496.140625 1016.066406 496.140625 C 1027.933594 496.140625 1037.328125 499.960938 1044.253906 507.601563 C 1051.175781 515.242188 1054.640625 525.542969 1054.640625 538.496094 "/>
<path style=" stroke:none;fill-rule:nonzero;fill:rgb(13.729858%,12.159729%,12.548828%);fill-opacity:1;" d="M 1143.800781 579.664063 L 1126.300781 579.664063 L 1126.300781 529.074219 C 1126.300781 522.796875 1125.113281 518.109375 1122.734375 515.019531 C 1120.363281 511.929688 1116.65625 510.382813 1111.609375 510.382813 C 1104.882813 510.382813 1099.949219 512.570313 1096.808594 516.945313 C 1093.667969 521.324219 1092.101563 528.605469 1092.101563 538.792969 L 1092.101563 579.664063 L 1074.667969 579.664063 L 1074.667969 497.621094 L 1088.316406 497.621094 L 1090.765625 508.378906 L 1091.65625 508.378906 C 1093.929688 504.472656 1097.234375 501.457031 1101.558594 499.328125 C 1105.886719 497.203125 1110.644531 496.140625 1115.839844 496.140625 C 1128.449219 496.140625 1136.808594 500.441406 1140.910156 509.046875 L 1142.101563 509.046875 C 1144.523438 504.992188 1147.933594 501.824219 1152.332031 499.554688 C 1156.734375 497.277344 1161.78125 496.140625 1167.46875 496.140625 C 1177.261719 496.140625 1184.390625 498.609375 1188.871094 503.558594 C 1193.34375 508.503906 1195.582031 516.046875 1195.582031 526.183594 L 1195.582031 579.664063 L 1178.148438 579.664063 L 1178.148438 529.074219 C 1178.148438 522.796875 1176.949219 518.109375 1174.550781 515.019531 C 1172.152344 511.929688 1168.433594 510.382813 1163.386719 510.382813 C 1156.613281 510.382813 1151.652344 512.496094 1148.515625 516.726563 C 1145.375 520.949219 1143.800781 527.445313 1143.800781 536.195313 Z M 1143.800781 579.664063 "/>
<path style=" stroke:none;fill-rule:nonzero;fill:rgb(13.729858%,12.159729%,12.548828%);fill-opacity:1;" d="M 1313.007813 534.269531 L 1302.84375 504.742188 C 1302.101563 502.765625 1301.074219 499.648438 1299.765625 495.398438 C 1298.453125 491.144531 1297.550781 488.027344 1297.058594 486.050781 C 1295.726563 492.132813 1293.769531 498.785156 1291.199219 506.003906 L 1281.40625 534.269531 Z M 1328.511719 579.664063 L 1317.679688 549.546875 L 1276.214844 549.546875 L 1265.609375 579.664063 L 1246.914063 579.664063 L 1287.488281 470.769531 L 1306.777344 470.769531 L 1347.355469 579.664063 Z M 1328.511719 579.664063 "/>
<path style=" stroke:none;fill-rule:nonzero;fill:rgb(13.729858%,12.159729%,12.548828%);fill-opacity:1;" d="M 1397.207031 510.382813 C 1390.28125 510.382813 1385.226563 512.40625 1382.035156 516.464844 C 1378.84375 520.519531 1377.25 526.996094 1377.25 535.898438 L 1377.25 538.496094 C 1377.25 548.484375 1378.832031 555.71875 1381.996094 560.195313 C 1385.160156 564.667969 1390.332031 566.90625 1397.5 566.90625 C 1403.53125 566.90625 1408.183594 564.433594 1411.449219 559.488281 C 1414.710938 554.542969 1416.34375 547.496094 1416.34375 538.347656 C 1416.34375 529.152344 1414.722656 522.1875 1411.480469 517.464844 C 1408.246094 512.742188 1403.480469 510.382813 1397.207031 510.382813 M 1401.433594 581.148438 C 1391.046875 581.148438 1382.984375 577.417969 1377.25 569.945313 L 1376.210938 569.945313 C 1376.902344 576.871094 1377.25 581.078125 1377.25 582.5625 L 1377.25 616.164063 L 1359.816406 616.164063 L 1359.816406 497.621094 L 1373.910156 497.621094 C 1374.308594 499.15625 1375.125 502.816406 1376.359375 508.601563 L 1377.25 508.601563 C 1382.6875 500.289063 1390.851563 496.140625 1401.730469 496.140625 C 1411.96875 496.140625 1419.941406 499.847656 1425.652344 507.265625 C 1431.363281 514.683594 1434.21875 525.09375 1434.21875 538.496094 C 1434.21875 551.898438 1431.316406 562.359375 1425.503906 569.875 C 1419.691406 577.390625 1411.667969 581.148438 1401.433594 581.148438 "/>
<path style=" stroke:none;fill-rule:nonzero;fill:rgb(13.729858%,12.159729%,12.548828%);fill-opacity:1;" d="M 1491.855469 510.382813 C 1484.933594 510.382813 1479.878906 512.40625 1476.6875 516.464844 C 1473.496094 520.519531 1471.902344 526.996094 1471.902344 535.898438 L 1471.902344 538.496094 C 1471.902344 548.484375 1473.484375 555.71875 1476.648438 560.195313 C 1479.8125 564.667969 1484.984375 566.90625 1492.152344 566.90625 C 1498.183594 566.90625 1502.835938 564.433594 1506.101563 559.488281 C 1509.363281 554.542969 1510.996094 547.496094 1510.996094 538.347656 C 1510.996094 529.152344 1509.375 522.1875 1506.132813 517.464844 C 1502.898438 512.742188 1498.132813 510.382813 1491.855469 510.382813 M 1496.085938 581.148438 C 1485.699219 581.148438 1477.636719 577.417969 1471.902344 569.945313 L 1470.863281 569.945313 C 1471.554688 576.871094 1471.902344 581.078125 1471.902344 582.5625 L 1471.902344 616.164063 L 1454.46875 616.164063 L 1454.46875 497.621094 L 1468.5625 497.621094 C 1468.960938 499.15625 1469.777344 502.816406 1471.011719 508.601563 L 1471.902344 508.601563 C 1477.339844 500.289063 1485.503906 496.140625 1496.382813 496.140625 C 1506.621094 496.140625 1514.59375 499.847656 1520.304688 507.265625 C 1526.015625 514.683594 1528.871094 525.09375 1528.871094 538.496094 C 1528.871094 551.898438 1525.96875 562.359375 1520.15625 569.875 C 1514.34375 577.390625 1506.320313 581.148438 1496.085938 581.148438 "/>
<path style=" stroke:none;fill-rule:nonzero;fill:rgb(13.729858%,12.159729%,12.548828%);fill-opacity:1;" d="M 1574.496094 567.796875 C 1580.824219 567.796875 1585.90625 566.03125 1589.738281 562.492188 C 1593.570313 558.957031 1595.488281 554 1595.488281 547.617188 L 1595.488281 540.5 L 1584.957031 540.945313 C 1576.746094 541.242188 1570.773438 542.613281 1567.042969 545.0625 C 1563.304688 547.507813 1561.441406 551.257813 1561.441406 556.300781 C 1561.441406 559.960938 1562.527344 562.789063 1564.703125 564.792969 C 1566.878906 566.792969 1570.144531 567.796875 1574.496094 567.796875 M 1600.457031 579.664063 L 1596.96875 568.238281 L 1596.378906 568.238281 C 1592.421875 573.238281 1588.4375 576.636719 1584.433594 578.445313 C 1580.433594 580.246094 1575.285156 581.148438 1569.007813 581.148438 C 1560.945313 581.148438 1554.652344 578.972656 1550.125 574.621094 C 1545.601563 570.269531 1543.339844 564.113281 1543.339844 556.148438 C 1543.339844 547.695313 1546.476563 541.316406 1552.761719 537.011719 C 1559.042969 532.710938 1568.609375 530.359375 1581.46875 529.964844 L 1595.636719 529.519531 L 1595.636719 525.144531 C 1595.636719 519.902344 1594.414063 515.984375 1591.964844 513.386719 C 1589.515625 510.789063 1585.722656 509.488281 1580.578125 509.488281 C 1576.375 509.488281 1572.34375 510.109375 1568.488281 511.347656 C 1564.632813 512.582031 1560.921875 514.042969 1557.359375 515.722656 L 1551.722656 503.257813 C 1556.175781 500.9375 1561.042969 499.167969 1566.335938 497.957031 C 1571.628906 496.746094 1576.621094 496.140625 1581.320313 496.140625 C 1591.753906 496.140625 1599.628906 498.414063 1604.945313 502.964844 C 1610.261719 507.515625 1612.921875 514.660156 1612.921875 524.402344 L 1612.921875 579.664063 Z M 1600.457031 579.664063 "/>
<path style=" stroke:none;fill-rule:nonzero;fill:rgb(13.729858%,12.159729%,12.548828%);fill-opacity:1;" d="M 1678.867188 496.140625 C 1682.378906 496.140625 1685.265625 496.382813 1687.542969 496.878906 L 1685.835938 513.125 C 1683.363281 512.53125 1680.792969 512.234375 1678.125 512.234375 C 1671.152344 512.234375 1665.5 514.511719 1661.175781 519.058594 C 1656.84375 523.613281 1654.679688 529.519531 1654.679688 536.789063 L 1654.679688 579.664063 L 1637.25 579.664063 L 1637.25 497.621094 L 1650.898438 497.621094 L 1653.195313 512.089844 L 1654.089844 512.089844 C 1656.808594 507.191406 1660.355469 503.308594 1664.734375 500.441406 C 1669.109375 497.574219 1673.824219 496.140625 1678.867188 496.140625 "/>
<path style=" stroke:none;fill-rule:nonzero;fill:rgb(13.729858%,12.159729%,12.548828%);fill-opacity:1;" d="M 1735.390625 509.34375 C 1729.851563 509.34375 1725.414063 511.097656 1722.074219 514.613281 C 1718.738281 518.121094 1716.746094 523.242188 1716.105469 529.964844 L 1753.339844 529.964844 C 1753.246094 523.191406 1751.609375 518.058594 1748.445313 514.574219 C 1745.28125 511.085938 1740.925781 509.34375 1735.390625 509.34375 M 1738.582031 581.148438 C 1725.820313 581.148438 1715.839844 577.429688 1708.648438 569.984375 C 1701.453125 562.542969 1697.855469 552.292969 1697.855469 539.238281 C 1697.855469 525.835938 1701.191406 515.304688 1707.867188 507.636719 C 1714.546875 499.972656 1723.71875 496.140625 1735.390625 496.140625 C 1746.21875 496.140625 1754.773438 499.429688 1761.054688 506.003906 C 1767.335938 512.582031 1770.476563 521.628906 1770.476563 533.15625 L 1770.476563 542.574219 L 1715.808594 542.574219 C 1716.050781 550.535156 1718.207031 556.65625 1722.257813 560.9375 C 1726.3125 565.214844 1732.027344 567.351563 1739.398438 567.351563 C 1744.242188 567.351563 1748.753906 566.894531 1752.933594 565.980469 C 1757.113281 565.066406 1761.601563 563.542969 1766.394531 561.417969 L 1766.394531 575.585938 C 1762.144531 577.613281 1757.839844 579.046875 1753.488281 579.890625 C 1749.136719 580.726563 1744.167969 581.148438 1738.582031 581.148438 "/>
<path style=" stroke:none;fill-rule:nonzero;fill:rgb(13.729858%,12.159729%,12.548828%);fill-opacity:1;" d="M 1807.714844 579.664063 L 1790.285156 579.664063 L 1790.285156 464.242188 L 1807.714844 464.242188 Z M 1807.714844 579.664063 "/>
</g>
</svg>
